{"asset":{"version":"2.0","generator":"EarthGuardian refined Beijing voxel assets"},"scene":0,"scenes":[{"nodes":[0]}],"nodes":[{"mesh":0}],"meshes":[{"primitives":[{"attributes":{"POSITION":0,"NORMAL":1},"indices":2,"material":16},{"attributes":{"POSITION":3,"NORMAL":4},"indices":5,"material":18},{"attributes":{"POSITION":6,"NORMAL":7},"indices":8,"material":19},{"attributes":{"POSITION":9,"NORMAL":10},"indices":11,"material":7},{"attributes":{"POSITION":12,"NORMAL":13},"indices":14,"material":30},{"attributes":{"POSITION":15,"NORMAL":16},"indices":17,"material":0},{"attributes":{"POSITION":18,"NORMAL":19},"indices":20,"material":3},{"attributes":{"POSITION":21,"NORMAL":22},"indices":23,"material":4},{"attributes":{"POSITION":24,"NORMAL":25},"indices":26,"material":5},{"attributes":{"POSITION":27,"NORMAL":28},"indices":29,"material":20},{"attributes":{"POSITION":30,"NORMAL":31},"indices":32,"material":21},{"attributes":{"POSITION":33,"NORMAL":34},"indices":35,"material":9},{"attributes":{"POSITION":36,"NORMAL":37},"indices":38,"material":8}]}],"materials":[{"name":"palaceRed","pbrMetallicRoughness":{"baseColorFactor":[0.7,0.06,0.035,1],"metallicFactor":0,"roughnessFactor":0.82}},{"name":"darkRed","pbrMetallicRoughness":{"baseColorFactor":[0.38,0.025,0.02,1],"metallicFactor":0,"roughnessFactor":0.82}},{"name":"vermilion","pbrMetallicRoughness":{"baseColorFactor":[0.88,0.08,0.035,1],"metallicFactor":0,"roughnessFactor":0.82}},{"name":"roofGold","pbrMetallicRoughness":{"baseColorFactor":[0.95,0.48,0.08,1],"metallicFactor":0,"roughnessFactor":0.82}},{"name":"roofDark","pbrMetallicRoughness":{"baseColorFactor":[0.52,0.2,0.045,1],"metallicFactor":0,"roughnessFactor":0.82}},{"name":"plaqueGold","pbrMetallicRoughness":{"baseColorFactor":[1,0.72,0.12,1],"metallicFactor":0,"roughnessFactor":0.82}},{"name":"plaqueBlue","pbrMetallicRoughness":{"baseColorFactor":[0.08,0.2,0.42,1],"metallicFactor":0,"roughnessFactor":0.82}},{"name":"marble","pbrMetallicRoughness":{"baseColorFactor":[0.88,0.84,0.72,1],"metallicFactor":0,"roughnessFactor":0.82}},{"name":"stone","pbrMetallicRoughness":{"baseColorFactor":[0.62,0.6,0.54,1],"metallicFactor":0,"roughnessFactor":0.82}},{"name":"darkStone","pbrMetallicRoughness":{"baseColorFactor":[0.32,0.32,0.31,1],"metallicFactor":0,"roughnessFactor":0.82}},{"name":"glassBlue","pbrMetallicRoughness":{"baseColorFactor":[0.34,0.66,0.78,0.86],"metallicFactor":0.08,"roughnessFactor":0.28},"alphaMode":"BLEND","doubleSided":true},{"name":"glassDark","pbrMetallicRoughness":{"baseColorFactor":[0.1,0.27,0.36,0.94],"metallicFactor":0.08,"roughnessFactor":0.28},"alphaMode":"BLEND","doubleSided":true},{"name":"glassLight","pbrMetallicRoughness":{"baseColorFactor":[0.6,0.86,0.92,0.78],"metallicFactor":0.08,"roughnessFactor":0.28},"alphaMode":"BLEND","doubleSided":true},{"name":"steelWhite","pbrMetallicRoughness":{"baseColorFactor":[0.88,0.9,0.88,1],"metallicFactor":0.08,"roughnessFactor":0.82}},{"name":"steelGrey","pbrMetallicRoughness":{"baseColorFactor":[0.5,0.53,0.53,1],"metallicFactor":0.08,"roughnessFactor":0.82}},{"name":"fieldGreen","pbrMetallicRoughness":{"baseColorFactor":[0.12,0.5,0.26,1],"metallicFactor":0,"roughnessFactor":0.82}},{"name":"grass","pbrMetallicRoughness":{"baseColorFactor":[0.3,0.58,0.23,1],"metallicFactor":0,"roughnessFactor":0.82}},{"name":"grassDark","pbrMetallicRoughness":{"baseColorFactor":[0.2,0.43,0.17,1],"metallicFactor":0,"roughnessFactor":0.82}},{"name":"pond","pbrMetallicRoughness":{"baseColorFactor":[0.12,0.5,0.68,0.88],"metallicFactor":0,"roughnessFactor":0.82},"alphaMode":"BLEND","doubleSided":true},{"name":"pondLight","pbrMetallicRoughness":{"baseColorFactor":[0.3,0.78,0.82,0.7],"metallicFactor":0,"roughnessFactor":0.82},"alphaMode":"BLEND","doubleSided":true},{"name":"lotusPink","pbrMetallicRoughness":{"baseColorFactor":[0.95,0.5,0.74,1],"metallicFactor":0,"roughnessFactor":0.82}},{"name":"leaf","pbrMetallicRoughness":{"baseColorFactor":[0.16,0.58,0.18,1],"metallicFactor":0,"roughnessFactor":0.82}},{"name":"bamboo","pbrMetallicRoughness":{"baseColorFactor":[0.22,0.66,0.18,1],"metallicFactor":0,"roughnessFactor":0.82}},{"name":"bambooDark","pbrMetallicRoughness":{"baseColorFactor":[0.11,0.36,0.08,1],"metallicFactor":0,"roughnessFactor":0.82}},{"name":"lanternRed","pbrMetallicRoughness":{"baseColorFactor":[0.9,0.03,0.02,1],"metallicFactor":0,"roughnessFactor":0.82}},{"name":"lanternGlow","pbrMetallicRoughness":{"baseColorFactor":[1,0.7,0.18,1],"metallicFactor":0,"roughnessFactor":0.82}},{"name":"sakuraBark","pbrMetallicRoughness":{"baseColorFactor":[0.42,0.22,0.12,1],"metallicFactor":0,"roughnessFactor":0.82}},{"name":"sakura","pbrMetallicRoughness":{"baseColorFactor":[0.98,0.58,0.78,1],"metallicFactor":0,"roughnessFactor":0.82}},{"name":"sakuraLight","pbrMetallicRoughness":{"baseColorFactor":[1,0.78,0.9,1],"metallicFactor":0,"roughnessFactor":0.82}},{"name":"black","pbrMetallicRoughness":{"baseColorFactor":[0.04,0.04,0.035,1],"metallicFactor":0,"roughnessFactor":0.82}},{"name":"white","pbrMetallicRoughness":{"baseColorFactor":[0.96,0.94,0.86,1],"metallicFactor":0,"roughnessFactor":0.82}}],"buffers":[{"uri":"data:application/octet-stream;base64,","byteLength":28512}],"bufferViews":[{"buffer":0,"byteOffset":0,"byteLength":288,"target":34962},{"buffer":0,"byteOffset":288,"byteLength":288,"target":34962},{"buffer":0,"byteOffset":576,"byteLength":72,"target":34963},{"buffer":0,"byteOffset":648,"byteLength":288,"target":34962},{"buffer":0,"byteOffset":936,"byteLength":288,"target":34962},{"buffer":0,"byteOffset":1224,"byteLength":72,"target":34963},{"buffer":0,"byteOffset":1296,"byteLength":288,"target":34962},{"buffer":0,"byteOffset":1584,"byteLength":288,"target":34962},{"buffer":0,"byteOffset":1872,"byteLength":72,"target":34963},{"buffer":0,"byteOffset":1944,"byteLength":2016,"target":34962},{"buffer":0,"byteOffset":3960,"byteLength":2016,"target":34962},{"buffer":0,"byteOffset":5976,"byteLength":504,"target":34963},{"buffer":0,"byteOffset":6480,"byteLength":576,"target":34962},{"buffer":0,"byteOffset":7056,"byteLength":576,"target":34962},{"buffer":0,"byteOffset":7632,"byteLength":144,"target":34963},{"buffer":0,"byteOffset":7776,"byteLength":1152,"target":34962},{"buffer":0,"byteOffset":8928,"byteLength":1152,"target":34962},{"buffer":0,"byteOffset":10080,"byteLength":288,"target":34963},{"buffer":0,"byteOffset":10368,"byteLength":1152,"target":34962},{"buffer":0,"byteOffset":11520,"byteLength":1152,"target":34962},{"buffer":0,"byteOffset":12672,"byteLength":288,"target":34963},{"buffer":0,"byteOffset":12960,"byteLength":1152,"target":34962},{"buffer":0,"byteOffset":14112,"byteLength":1152,"target":34962},{"buffer":0,"byteOffset":15264,"byteLength":288,"target":34963},{"buffer":0,"byteOffset":15552,"byteLength":1152,"target":34962},{"buffer":0,"byteOffset":16704,"byteLength":1152,"target":34962},{"buffer":0,"byteOffset":17856,"byteLength":288,"target":34963},{"buffer":0,"byteOffset":18144,"byteLength":1440,"target":34962},{"buffer":0,"byteOffset":19584,"byteLength":1440,"target":34962},{"buffer":0,"byteOffset":21024,"byteLength":360,"target":34963},{"buffer":0,"byteOffset":21384,"byteLength":1440,"target":34962},{"buffer":0,"byteOffset":22824,"byteLength":1440,"target":34962},{"buffer":0,"byteOffset":24264,"byteLength":360,"target":34963},{"buffer":0,"byteOffset":24624,"byteLength":864,"target":34962},{"buffer":0,"byteOffset":25488,"byteLength":864,"target":34962},{"buffer":0,"byteOffset":26352,"byteLength":216,"target":34963},{"buffer":0,"byteOffset":26568,"byteLength":864,"target":34962},{"buffer":0,"byteOffset":27432,"byteLength":864,"target":34962},{"buffer":0,"byteOffset":28296,"byteLength":216,"target":34963}],"accessors":[{"bufferView":0,"componentType":5126,"count":24,"type":"VEC3","min":[-3.7,0,-2.8],"max":[3.7,0.1,2.8]},{"bufferView":1,"componentType":5126,"count":24,"type":"VEC3"},{"bufferView":2,"componentType":5123,"count":36,"type":"SCALAR","min":[0],"max":[23]},{"bufferView":3,"componentType":5126,"count":24,"type":"VEC3","min":[-1.8499999999999999,0.09000000000000001,-1.28],"max":[2.75,0.19,1.32]},{"bufferView":4,"componentType":5126,"count":24,"type":"VEC3"},{"bufferView":5,"componentType":5123,"count":36,"type":"SCALAR","min":[0],"max":[23]},{"bufferView":6,"componentType":5126,"count":24,"type":"VEC3","min":[-1.05,0.2,-0.6200000000000001],"max":[1.45,0.24,-0.48000000000000004]},{"bufferView":7,"componentType":5126,"count":24,"type":"VEC3"},{"bufferView":8,"componentType":5123,"count":36,"type":"SCALAR","min":[0],"max":[23]},{"bufferView":9,"componentType":5126,"count":168,"type":"VEC3","min":[-1.18,0.33,-1.49],"max":[1.18,0.6500000000000001,1.43]},{"bufferView":10,"componentType":5126,"count":168,"type":"VEC3"},{"bufferView":11,"componentType":5123,"count":252,"type":"SCALAR","min":[0],"max":[167]},{"bufferView":12,"componentType":5126,"count":48,"type":"VEC3","min":[-1.3,0.7,-1.62],"max":[1.3,0.8200000000000001,1.62]},{"bufferView":13,"componentType":5126,"count":48,"type":"VEC3"},{"bufferView":14,"componentType":5123,"count":72,"type":"SCALAR","min":[0],"max":[47]},{"bufferView":15,"componentType":5126,"count":96,"type":"VEC3","min":[-3.01,0.18,-2.0100000000000002],"max":[3.01,1.02,-1.23]},{"bufferView":16,"componentType":5126,"count":96,"type":"VEC3"},{"bufferView":17,"componentType":5123,"count":144,"type":"SCALAR","min":[0],"max":[95]},{"bufferView":18,"componentType":5126,"count":96,"type":"VEC3","min":[-3.15,1.01,-2.13],"max":[3.15,1.1500000000000001,-1.11]},{"bufferView":19,"componentType":5126,"count":96,"type":"VEC3"},{"bufferView":20,"componentType":5123,"count":144,"type":"SCALAR","min":[0],"max":[95]},{"bufferView":21,"componentType":5126,"count":96,"type":"VEC3","min":[-2.86,1.17,-1.9500000000000002],"max":[2.86,1.31,-1.29]},{"bufferView":22,"componentType":5126,"count":96,"type":"VEC3"},{"bufferView":23,"componentType":5123,"count":144,"type":"SCALAR","min":[0],"max":[95]},{"bufferView":24,"componentType":5126,"count":96,"type":"VEC3","min":[-2.91,1.36,-1.6800000000000002],"max":[2.91,1.4400000000000002,-1.56]},{"bufferView":25,"componentType":5126,"count":96,"type":"VEC3"},{"bufferView":26,"componentType":5123,"count":144,"type":"SCALAR","min":[0],"max":[95]},{"bufferView":27,"componentType":5126,"count":120,"type":"VEC3","min":[-1.42,0.25,-0.92],"max":[2.12,0.35,1.12]},{"bufferView":28,"componentType":5126,"count":120,"type":"VEC3"},{"bufferView":29,"componentType":5123,"count":180,"type":"SCALAR","min":[0],"max":[119]},{"bufferView":30,"componentType":5126,"count":120,"type":"VEC3","min":[-1.24,0.24000000000000002,-0.81],"max":[2.3800000000000003,0.30000000000000004,1.2100000000000002]},{"bufferView":31,"componentType":5126,"count":120,"type":"VEC3"},{"bufferView":32,"componentType":5123,"count":180,"type":"SCALAR","min":[0],"max":[119]},{"bufferView":33,"componentType":5126,"count":72,"type":"VEC3","min":[-3.5100000000000002,0.06,-1.81],"max":[3.41,0.78,1.91]},{"bufferView":34,"componentType":5126,"count":72,"type":"VEC3"},{"bufferView":35,"componentType":5123,"count":108,"type":"SCALAR","min":[0],"max":[71]},{"bufferView":36,"componentType":5126,"count":72,"type":"VEC3","min":[-3.1,0.55,-1.8200000000000003],"max":[3.56,0.97,1.7599999999999998]},{"bufferView":37,"componentType":5126,"count":72,"type":"VEC3"},{"bufferView":38,"componentType":5123,"count":108,"type":"SCALAR","min":[0],"max":[71]}]}