{"asset":{"version":"2.0","generator":"EarthGuardian Shandong horizontal voxel scene"},"scene":0,"scenes":[{"nodes":[0]}],"nodes":[{"mesh":0}],"meshes":[{"primitives":[{"attributes":{"POSITION":0,"NORMAL":1},"indices":2,"material":18},{"attributes":{"POSITION":3,"NORMAL":4},"indices":5,"material":28}]}],"materials":[{"name":"asphalt","pbrMetallicRoughness":{"baseColorFactor":[0.16,0.17,0.17,1],"metallicFactor":0,"roughnessFactor":0.82}},{"name":"lane","pbrMetallicRoughness":{"baseColorFactor":[0.92,0.86,0.58,1],"metallicFactor":0,"roughnessFactor":0.82}},{"name":"roadWhite","pbrMetallicRoughness":{"baseColorFactor":[0.96,0.96,0.9,1],"metallicFactor":0,"roughnessFactor":0.82}},{"name":"plaza","pbrMetallicRoughness":{"baseColorFactor":[0.74,0.72,0.66,1],"metallicFactor":0,"roughnessFactor":0.82}},{"name":"stone","pbrMetallicRoughness":{"baseColorFactor":[0.62,0.6,0.55,1],"metallicFactor":0,"roughnessFactor":0.82}},{"name":"stoneDark","pbrMetallicRoughness":{"baseColorFactor":[0.38,0.38,0.36,1],"metallicFactor":0,"roughnessFactor":0.82}},{"name":"water","pbrMetallicRoughness":{"baseColorFactor":[0.05,0.48,0.58,0.88],"metallicFactor":0.08,"roughnessFactor":0.25},"alphaMode":"BLEND","doubleSided":true},{"name":"waterLight","pbrMetallicRoughness":{"baseColorFactor":[0.35,0.82,0.84,0.72],"metallicFactor":0.08,"roughnessFactor":0.25},"alphaMode":"BLEND","doubleSided":true},{"name":"grass","pbrMetallicRoughness":{"baseColorFactor":[0.2,0.48,0.2,1],"metallicFactor":0,"roughnessFactor":0.82}},{"name":"grassLight","pbrMetallicRoughness":{"baseColorFactor":[0.34,0.64,0.28,1],"metallicFactor":0,"roughnessFactor":0.82}},{"name":"hedge","pbrMetallicRoughness":{"baseColorFactor":[0.1,0.36,0.12,1],"metallicFactor":0,"roughnessFactor":0.82}},{"name":"earthDark","pbrMetallicRoughness":{"baseColorFactor":[0.27,0.16,0.08,1],"metallicFactor":0,"roughnessFactor":0.82}},{"name":"earthMid","pbrMetallicRoughness":{"baseColorFactor":[0.44,0.29,0.15,1],"metallicFactor":0,"roughnessFactor":0.82}},{"name":"wallWhite","pbrMetallicRoughness":{"baseColorFactor":[0.86,0.84,0.76,1],"metallicFactor":0,"roughnessFactor":0.82}},{"name":"wallGrey","pbrMetallicRoughness":{"baseColorFactor":[0.72,0.72,0.68,1],"metallicFactor":0,"roughnessFactor":0.82}},{"name":"roofGrey","pbrMetallicRoughness":{"baseColorFactor":[0.38,0.42,0.44,1],"metallicFactor":0,"roughnessFactor":0.82}},{"name":"roofDark","pbrMetallicRoughness":{"baseColorFactor":[0.22,0.25,0.27,1],"metallicFactor":0,"roughnessFactor":0.82}},{"name":"gateRed","pbrMetallicRoughness":{"baseColorFactor":[0.7,0.1,0.06,1],"metallicFactor":0,"roughnessFactor":0.82}},{"name":"wood","pbrMetallicRoughness":{"baseColorFactor":[0.34,0.18,0.08,1],"metallicFactor":0,"roughnessFactor":0.82}},{"name":"glassBlue","pbrMetallicRoughness":{"baseColorFactor":[0.42,0.66,0.82,0.88],"metallicFactor":0.08,"roughnessFactor":0.25},"alphaMode":"BLEND","doubleSided":true},{"name":"glassDark","pbrMetallicRoughness":{"baseColorFactor":[0.14,0.28,0.36,0.92],"metallicFactor":0.08,"roughnessFactor":0.25},"alphaMode":"BLEND","doubleSided":true},{"name":"metal","pbrMetallicRoughness":{"baseColorFactor":[0.62,0.66,0.68,1],"metallicFactor":0,"roughnessFactor":0.82}},{"name":"white","pbrMetallicRoughness":{"baseColorFactor":[0.92,0.92,0.86,1],"metallicFactor":0,"roughnessFactor":0.82}},{"name":"blue","pbrMetallicRoughness":{"baseColorFactor":[0.02,0.44,0.84,1],"metallicFactor":0,"roughnessFactor":0.82}},{"name":"black","pbrMetallicRoughness":{"baseColorFactor":[0.05,0.05,0.05,1],"metallicFactor":0,"roughnessFactor":0.82}},{"name":"sakura","pbrMetallicRoughness":{"baseColorFactor":[0.96,0.58,0.78,1],"metallicFactor":0,"roughnessFactor":0.82}},{"name":"lotus","pbrMetallicRoughness":{"baseColorFactor":[0.22,0.62,0.28,1],"metallicFactor":0,"roughnessFactor":0.82}},{"name":"lotusPink","pbrMetallicRoughness":{"baseColorFactor":[0.94,0.5,0.72,1],"metallicFactor":0,"roughnessFactor":0.82}},{"name":"bamboo","pbrMetallicRoughness":{"baseColorFactor":[0.28,0.62,0.2,1],"metallicFactor":0,"roughnessFactor":0.82}},{"name":"carRed","pbrMetallicRoughness":{"baseColorFactor":[0.84,0.06,0.05,1],"metallicFactor":0,"roughnessFactor":0.82}},{"name":"carBlue","pbrMetallicRoughness":{"baseColorFactor":[0.08,0.36,0.82,1],"metallicFactor":0,"roughnessFactor":0.82}},{"name":"carYellow","pbrMetallicRoughness":{"baseColorFactor":[0.92,0.64,0.12,1],"metallicFactor":0,"roughnessFactor":0.82}}],"buffers":[{"uri":"data:application/octet-stream;base64,","byteLength":7776}],"bufferViews":[{"buffer":0,"byteOffset":0,"byteLength":1152,"target":34962},{"buffer":0,"byteOffset":1152,"byteLength":1152,"target":34962},{"buffer":0,"byteOffset":2304,"byteLength":288,"target":34963},{"buffer":0,"byteOffset":2592,"byteLength":2304,"target":34962},{"buffer":0,"byteOffset":4896,"byteLength":2304,"target":34962},{"buffer":0,"byteOffset":7200,"byteLength":576,"target":34963}],"accessors":[{"bufferView":0,"componentType":5126,"count":96,"type":"VEC3","min":[-0.45,0,-0.5],"max":[0.5,1.5,0.39999999999999997]},{"bufferView":1,"componentType":5126,"count":96,"type":"VEC3"},{"bufferView":2,"componentType":5123,"count":144,"type":"SCALAR","min":[0],"max":[95]},{"bufferView":3,"componentType":5126,"count":192,"type":"VEC3","min":[-0.75,0.78,-0.8],"max":[0.8,2.625,0.7]},{"bufferView":4,"componentType":5126,"count":192,"type":"VEC3"},{"bufferView":5,"componentType":5123,"count":288,"type":"SCALAR","min":[0],"max":[191]}]}