{"asset":{"version":"2.0","generator":"EarthGuardian refined Beijing voxel assets"},"scene":0,"scenes":[{"nodes":[0]}],"nodes":[{"mesh":0}],"meshes":[{"primitives":[{"attributes":{"POSITION":0,"NORMAL":1},"indices":2,"material":1},{"attributes":{"POSITION":3,"NORMAL":4},"indices":5,"material":25},{"attributes":{"POSITION":6,"NORMAL":7},"indices":8,"material":24}]}],"materials":[{"name":"palaceRed","pbrMetallicRoughness":{"baseColorFactor":[0.7,0.06,0.035,1],"metallicFactor":0,"roughnessFactor":0.82}},{"name":"darkRed","pbrMetallicRoughness":{"baseColorFactor":[0.38,0.025,0.02,1],"metallicFactor":0,"roughnessFactor":0.82}},{"name":"vermilion","pbrMetallicRoughness":{"baseColorFactor":[0.88,0.08,0.035,1],"metallicFactor":0,"roughnessFactor":0.82}},{"name":"roofGold","pbrMetallicRoughness":{"baseColorFactor":[0.95,0.48,0.08,1],"metallicFactor":0,"roughnessFactor":0.82}},{"name":"roofDark","pbrMetallicRoughness":{"baseColorFactor":[0.52,0.2,0.045,1],"metallicFactor":0,"roughnessFactor":0.82}},{"name":"plaqueGold","pbrMetallicRoughness":{"baseColorFactor":[1,0.72,0.12,1],"metallicFactor":0,"roughnessFactor":0.82}},{"name":"plaqueBlue","pbrMetallicRoughness":{"baseColorFactor":[0.08,0.2,0.42,1],"metallicFactor":0,"roughnessFactor":0.82}},{"name":"marble","pbrMetallicRoughness":{"baseColorFactor":[0.88,0.84,0.72,1],"metallicFactor":0,"roughnessFactor":0.82}},{"name":"stone","pbrMetallicRoughness":{"baseColorFactor":[0.62,0.6,0.54,1],"metallicFactor":0,"roughnessFactor":0.82}},{"name":"darkStone","pbrMetallicRoughness":{"baseColorFactor":[0.32,0.32,0.31,1],"metallicFactor":0,"roughnessFactor":0.82}},{"name":"glassBlue","pbrMetallicRoughness":{"baseColorFactor":[0.34,0.66,0.78,0.86],"metallicFactor":0.08,"roughnessFactor":0.28},"alphaMode":"BLEND","doubleSided":true},{"name":"glassDark","pbrMetallicRoughness":{"baseColorFactor":[0.1,0.27,0.36,0.94],"metallicFactor":0.08,"roughnessFactor":0.28},"alphaMode":"BLEND","doubleSided":true},{"name":"glassLight","pbrMetallicRoughness":{"baseColorFactor":[0.6,0.86,0.92,0.78],"metallicFactor":0.08,"roughnessFactor":0.28},"alphaMode":"BLEND","doubleSided":true},{"name":"steelWhite","pbrMetallicRoughness":{"baseColorFactor":[0.88,0.9,0.88,1],"metallicFactor":0.08,"roughnessFactor":0.82}},{"name":"steelGrey","pbrMetallicRoughness":{"baseColorFactor":[0.5,0.53,0.53,1],"metallicFactor":0.08,"roughnessFactor":0.82}},{"name":"fieldGreen","pbrMetallicRoughness":{"baseColorFactor":[0.12,0.5,0.26,1],"metallicFactor":0,"roughnessFactor":0.82}},{"name":"grass","pbrMetallicRoughness":{"baseColorFactor":[0.3,0.58,0.23,1],"metallicFactor":0,"roughnessFactor":0.82}},{"name":"grassDark","pbrMetallicRoughness":{"baseColorFactor":[0.2,0.43,0.17,1],"metallicFactor":0,"roughnessFactor":0.82}},{"name":"pond","pbrMetallicRoughness":{"baseColorFactor":[0.12,0.5,0.68,0.88],"metallicFactor":0,"roughnessFactor":0.82},"alphaMode":"BLEND","doubleSided":true},{"name":"pondLight","pbrMetallicRoughness":{"baseColorFactor":[0.3,0.78,0.82,0.7],"metallicFactor":0,"roughnessFactor":0.82},"alphaMode":"BLEND","doubleSided":true},{"name":"lotusPink","pbrMetallicRoughness":{"baseColorFactor":[0.95,0.5,0.74,1],"metallicFactor":0,"roughnessFactor":0.82}},{"name":"leaf","pbrMetallicRoughness":{"baseColorFactor":[0.16,0.58,0.18,1],"metallicFactor":0,"roughnessFactor":0.82}},{"name":"bamboo","pbrMetallicRoughness":{"baseColorFactor":[0.22,0.66,0.18,1],"metallicFactor":0,"roughnessFactor":0.82}},{"name":"bambooDark","pbrMetallicRoughness":{"baseColorFactor":[0.11,0.36,0.08,1],"metallicFactor":0,"roughnessFactor":0.82}},{"name":"lanternRed","pbrMetallicRoughness":{"baseColorFactor":[0.9,0.03,0.02,1],"metallicFactor":0,"roughnessFactor":0.82}},{"name":"lanternGlow","pbrMetallicRoughness":{"baseColorFactor":[1,0.7,0.18,1],"metallicFactor":0,"roughnessFactor":0.82}},{"name":"sakuraBark","pbrMetallicRoughness":{"baseColorFactor":[0.42,0.22,0.12,1],"metallicFactor":0,"roughnessFactor":0.82}},{"name":"sakura","pbrMetallicRoughness":{"baseColorFactor":[0.98,0.58,0.78,1],"metallicFactor":0,"roughnessFactor":0.82}},{"name":"sakuraLight","pbrMetallicRoughness":{"baseColorFactor":[1,0.78,0.9,1],"metallicFactor":0,"roughnessFactor":0.82}},{"name":"black","pbrMetallicRoughness":{"baseColorFactor":[0.04,0.04,0.035,1],"metallicFactor":0,"roughnessFactor":0.82}},{"name":"white","pbrMetallicRoughness":{"baseColorFactor":[0.96,0.94,0.86,1],"metallicFactor":0,"roughnessFactor":0.82}}],"buffers":[{"uri":"data:application/octet-stream;base64,","byteLength":4536}],"bufferViews":[{"buffer":0,"byteOffset":0,"byteLength":288,"target":34962},{"buffer":0,"byteOffset":288,"byteLength":288,"target":34962},{"buffer":0,"byteOffset":576,"byteLength":72,"target":34963},{"buffer":0,"byteOffset":648,"byteLength":1152,"target":34962},{"buffer":0,"byteOffset":1800,"byteLength":1152,"target":34962},{"buffer":0,"byteOffset":2952,"byteLength":288,"target":34963},{"buffer":0,"byteOffset":3240,"byteLength":576,"target":34962},{"buffer":0,"byteOffset":3816,"byteLength":576,"target":34962},{"buffer":0,"byteOffset":4392,"byteLength":144,"target":34963}],"accessors":[{"bufferView":0,"componentType":5126,"count":24,"type":"VEC3","min":[-0.04,0,-0.04],"max":[0.04,1.44,0.04]},{"bufferView":1,"componentType":5126,"count":24,"type":"VEC3"},{"bufferView":2,"componentType":5123,"count":36,"type":"SCALAR","min":[0],"max":[23]},{"bufferView":3,"componentType":5126,"count":96,"type":"VEC3","min":[-0.31,0.98,-0.04],"max":[0.31,1.54,0.04]},{"bufferView":4,"componentType":5126,"count":96,"type":"VEC3"},{"bufferView":5,"componentType":5123,"count":144,"type":"SCALAR","min":[0],"max":[95]},{"bufferView":6,"componentType":5126,"count":48,"type":"VEC3","min":[-0.39,1.09,-0.12],"max":[0.39,1.47,0.12]},{"bufferView":7,"componentType":5126,"count":48,"type":"VEC3"},{"bufferView":8,"componentType":5123,"count":72,"type":"SCALAR","min":[0],"max":[47]}]}