{"asset":{"version":"2.0","generator":"EarthGuardian refined Shanghai landmark voxels"},"scene":0,"scenes":[{"nodes":[0]}],"nodes":[{"mesh":0}],"meshes":[{"primitives":[{"attributes":{"POSITION":0,"NORMAL":1},"indices":2,"material":8},{"attributes":{"POSITION":3,"NORMAL":4},"indices":5,"material":0},{"attributes":{"POSITION":6,"NORMAL":7},"indices":8,"material":2},{"attributes":{"POSITION":9,"NORMAL":10},"indices":11,"material":7},{"attributes":{"POSITION":12,"NORMAL":13},"indices":14,"material":5},{"attributes":{"POSITION":15,"NORMAL":16},"indices":17,"material":6},{"attributes":{"POSITION":18,"NORMAL":19},"indices":20,"material":3},{"attributes":{"POSITION":21,"NORMAL":22},"indices":23,"material":1}]}],"materials":[{"name":"water","pbrMetallicRoughness":{"baseColorFactor":[0.03,0.48,0.58,0.84],"metallicFactor":0.1,"roughnessFactor":0.22},"alphaMode":"BLEND","doubleSided":true},{"name":"waterFoam","pbrMetallicRoughness":{"baseColorFactor":[0.45,0.86,0.88,0.64],"metallicFactor":0.1,"roughnessFactor":0.22},"alphaMode":"BLEND","doubleSided":true},{"name":"land","pbrMetallicRoughness":{"baseColorFactor":[0.53,0.58,0.48,1],"metallicFactor":0,"roughnessFactor":0.82}},{"name":"grass","pbrMetallicRoughness":{"baseColorFactor":[0.14,0.47,0.2,1],"metallicFactor":0,"roughnessFactor":0.82}},{"name":"grassLight","pbrMetallicRoughness":{"baseColorFactor":[0.24,0.62,0.27,1],"metallicFactor":0,"roughnessFactor":0.82}},{"name":"road","pbrMetallicRoughness":{"baseColorFactor":[0.28,0.3,0.31,1],"metallicFactor":0,"roughnessFactor":0.82}},{"name":"plaza","pbrMetallicRoughness":{"baseColorFactor":[0.76,0.72,0.62,1],"metallicFactor":0,"roughnessFactor":0.82}},{"name":"quay","pbrMetallicRoughness":{"baseColorFactor":[0.62,0.58,0.48,1],"metallicFactor":0,"roughnessFactor":0.82}},{"name":"earth","pbrMetallicRoughness":{"baseColorFactor":[0.34,0.22,0.13,1],"metallicFactor":0,"roughnessFactor":0.82}},{"name":"concrete","pbrMetallicRoughness":{"baseColorFactor":[0.62,0.64,0.62,1],"metallicFactor":0,"roughnessFactor":0.82}},{"name":"darkConcrete","pbrMetallicRoughness":{"baseColorFactor":[0.32,0.34,0.34,1],"metallicFactor":0,"roughnessFactor":0.82}},{"name":"glassBlue","pbrMetallicRoughness":{"baseColorFactor":[0.28,0.63,0.78,0.88],"metallicFactor":0.1,"roughnessFactor":0.22},"alphaMode":"BLEND","doubleSided":true},{"name":"glassCyan","pbrMetallicRoughness":{"baseColorFactor":[0.45,0.83,0.9,0.78],"metallicFactor":0.1,"roughnessFactor":0.22},"alphaMode":"BLEND","doubleSided":true},{"name":"glassDark","pbrMetallicRoughness":{"baseColorFactor":[0.08,0.22,0.31,0.94],"metallicFactor":0.1,"roughnessFactor":0.22},"alphaMode":"BLEND","doubleSided":true},{"name":"glassSilver","pbrMetallicRoughness":{"baseColorFactor":[0.66,0.78,0.82,0.86],"metallicFactor":0.1,"roughnessFactor":0.22},"alphaMode":"BLEND","doubleSided":true},{"name":"steel","pbrMetallicRoughness":{"baseColorFactor":[0.66,0.69,0.68,1],"metallicFactor":0.1,"roughnessFactor":0.82}},{"name":"steelDark","pbrMetallicRoughness":{"baseColorFactor":[0.32,0.36,0.38,1],"metallicFactor":0.1,"roughnessFactor":0.82}},{"name":"pearlRed","pbrMetallicRoughness":{"baseColorFactor":[0.8,0.1,0.16,1],"metallicFactor":0,"roughnessFactor":0.82}},{"name":"pearlPink","pbrMetallicRoughness":{"baseColorFactor":[0.95,0.36,0.46,1],"metallicFactor":0,"roughnessFactor":0.82}},{"name":"pearlWhite","pbrMetallicRoughness":{"baseColorFactor":[0.94,0.88,0.76,1],"metallicFactor":0,"roughnessFactor":0.82}},{"name":"gold","pbrMetallicRoughness":{"baseColorFactor":[0.96,0.7,0.18,1],"metallicFactor":0,"roughnessFactor":0.82}},{"name":"bundStone","pbrMetallicRoughness":{"baseColorFactor":[0.78,0.66,0.48,1],"metallicFactor":0,"roughnessFactor":0.82}},{"name":"bundDark","pbrMetallicRoughness":{"baseColorFactor":[0.46,0.35,0.23,1],"metallicFactor":0,"roughnessFactor":0.82}},{"name":"roofGreen","pbrMetallicRoughness":{"baseColorFactor":[0.08,0.38,0.36,1],"metallicFactor":0,"roughnessFactor":0.82}},{"name":"neon","pbrMetallicRoughness":{"baseColorFactor":[0.18,0.95,0.9,1],"metallicFactor":0,"roughnessFactor":0.82}},{"name":"warning","pbrMetallicRoughness":{"baseColorFactor":[1,0.45,0.04,1],"metallicFactor":0,"roughnessFactor":0.82}},{"name":"red","pbrMetallicRoughness":{"baseColorFactor":[0.82,0.05,0.04,1],"metallicFactor":0,"roughnessFactor":0.82}},{"name":"white","pbrMetallicRoughness":{"baseColorFactor":[0.96,0.96,0.9,1],"metallicFactor":0,"roughnessFactor":0.82}},{"name":"black","pbrMetallicRoughness":{"baseColorFactor":[0.04,0.04,0.04,1],"metallicFactor":0,"roughnessFactor":0.82}},{"name":"treeTrunk","pbrMetallicRoughness":{"baseColorFactor":[0.35,0.2,0.1,1],"metallicFactor":0,"roughnessFactor":0.82}},{"name":"tree","pbrMetallicRoughness":{"baseColorFactor":[0.1,0.42,0.16,1],"metallicFactor":0,"roughnessFactor":0.82}},{"name":"rust","pbrMetallicRoughness":{"baseColorFactor":[0.55,0.22,0.1,1],"metallicFactor":0,"roughnessFactor":0.82}},{"name":"crate","pbrMetallicRoughness":{"baseColorFactor":[0.58,0.34,0.14,1],"metallicFactor":0,"roughnessFactor":0.82}},{"name":"tan","pbrMetallicRoughness":{"baseColorFactor":[0.75,0.62,0.44,1],"metallicFactor":0,"roughnessFactor":0.82}}],"buffers":[{"uri":"data:application/octet-stream;base64,","byteLength":27216}],"bufferViews":[{"buffer":0,"byteOffset":0,"byteLength":288,"target":34962},{"buffer":0,"byteOffset":288,"byteLength":288,"target":34962},{"buffer":0,"byteOffset":576,"byteLength":72,"target":34963},{"buffer":0,"byteOffset":648,"byteLength":576,"target":34962},{"buffer":0,"byteOffset":1224,"byteLength":576,"target":34962},{"buffer":0,"byteOffset":1800,"byteLength":144,"target":34963},{"buffer":0,"byteOffset":1944,"byteLength":576,"target":34962},{"buffer":0,"byteOffset":2520,"byteLength":576,"target":34962},{"buffer":0,"byteOffset":3096,"byteLength":144,"target":34963},{"buffer":0,"byteOffset":3240,"byteLength":864,"target":34962},{"buffer":0,"byteOffset":4104,"byteLength":864,"target":34962},{"buffer":0,"byteOffset":4968,"byteLength":216,"target":34963},{"buffer":0,"byteOffset":5184,"byteLength":1152,"target":34962},{"buffer":0,"byteOffset":6336,"byteLength":1152,"target":34962},{"buffer":0,"byteOffset":7488,"byteLength":288,"target":34963},{"buffer":0,"byteOffset":7776,"byteLength":3456,"target":34962},{"buffer":0,"byteOffset":11232,"byteLength":3456,"target":34962},{"buffer":0,"byteOffset":14688,"byteLength":864,"target":34963},{"buffer":0,"byteOffset":15552,"byteLength":1728,"target":34962},{"buffer":0,"byteOffset":17280,"byteLength":1728,"target":34962},{"buffer":0,"byteOffset":19008,"byteLength":432,"target":34963},{"buffer":0,"byteOffset":19440,"byteLength":3456,"target":34962},{"buffer":0,"byteOffset":22896,"byteLength":3456,"target":34962},{"buffer":0,"byteOffset":26352,"byteLength":864,"target":34963}],"accessors":[{"bufferView":0,"componentType":5126,"count":24,"type":"VEC3","min":[-28,-0.51,-18],"max":[28,-0.010000000000000009,18]},{"bufferView":1,"componentType":5126,"count":24,"type":"VEC3"},{"bufferView":2,"componentType":5123,"count":36,"type":"SCALAR","min":[0],"max":[23]},{"bufferView":3,"componentType":5126,"count":48,"type":"VEC3","min":[-28,0,-13.2],"max":[1,0.07,18.2]},{"bufferView":4,"componentType":5126,"count":48,"type":"VEC3"},{"bufferView":5,"componentType":5123,"count":72,"type":"SCALAR","min":[0],"max":[47]},{"bufferView":6,"componentType":5126,"count":48,"type":"VEC3","min":[-13.45,0.020000000000000004,-14.05],"max":[26.45,0.19,13.45]},{"bufferView":7,"componentType":5126,"count":48,"type":"VEC3"},{"bufferView":8,"componentType":5123,"count":72,"type":"SCALAR","min":[0],"max":[47]},{"bufferView":9,"componentType":5126,"count":72,"type":"VEC3","min":[-15.95,0.13,-11.45],"max":[19.05,0.31,12.36]},{"bufferView":10,"componentType":5126,"count":72,"type":"VEC3"},{"bufferView":11,"componentType":5123,"count":108,"type":"SCALAR","min":[0],"max":[71]},{"bufferView":12,"componentType":5126,"count":96,"type":"VEC3","min":[-4.5,0.21,-12.4],"max":[25.5,0.275,2.4000000000000004]},{"bufferView":13,"componentType":5126,"count":96,"type":"VEC3"},{"bufferView":14,"componentType":5123,"count":144,"type":"SCALAR","min":[0],"max":[95]},{"bufferView":15,"componentType":5126,"count":288,"type":"VEC3","min":[-6,0.225,-8.15],"max":[23,0.29000000000000004,0.95]},{"bufferView":16,"componentType":5126,"count":288,"type":"VEC3"},{"bufferView":17,"componentType":5123,"count":432,"type":"SCALAR","min":[0],"max":[287]},{"bufferView":18,"componentType":5126,"count":144,"type":"VEC3","min":[-6.5,0.25,-12.9],"max":[25,0.31000000000000005,6.2]},{"bufferView":19,"componentType":5126,"count":144,"type":"VEC3"},{"bufferView":20,"componentType":5123,"count":216,"type":"SCALAR","min":[0],"max":[143]},{"bufferView":21,"componentType":5126,"count":288,"type":"VEC3","min":[-25.5,0.075,-4.1899999999999995],"max":[8.625,0.105,13.54]},{"bufferView":22,"componentType":5126,"count":288,"type":"VEC3"},{"bufferView":23,"componentType":5123,"count":432,"type":"SCALAR","min":[0],"max":[287]}]}