{"asset":{"version":"2.0","generator":"EarthGuardian Shandong horizontal voxel scene"},"scene":0,"scenes":[{"nodes":[0]}],"nodes":[{"mesh":0}],"meshes":[{"primitives":[{"attributes":{"POSITION":0,"NORMAL":1},"indices":2,"material":4},{"attributes":{"POSITION":3,"NORMAL":4},"indices":5,"material":3},{"attributes":{"POSITION":6,"NORMAL":7},"indices":8,"material":23},{"attributes":{"POSITION":9,"NORMAL":10},"indices":11,"material":22}]}],"materials":[{"name":"asphalt","pbrMetallicRoughness":{"baseColorFactor":[0.16,0.17,0.17,1],"metallicFactor":0,"roughnessFactor":0.82}},{"name":"lane","pbrMetallicRoughness":{"baseColorFactor":[0.92,0.86,0.58,1],"metallicFactor":0,"roughnessFactor":0.82}},{"name":"roadWhite","pbrMetallicRoughness":{"baseColorFactor":[0.96,0.96,0.9,1],"metallicFactor":0,"roughnessFactor":0.82}},{"name":"plaza","pbrMetallicRoughness":{"baseColorFactor":[0.74,0.72,0.66,1],"metallicFactor":0,"roughnessFactor":0.82}},{"name":"stone","pbrMetallicRoughness":{"baseColorFactor":[0.62,0.6,0.55,1],"metallicFactor":0,"roughnessFactor":0.82}},{"name":"stoneDark","pbrMetallicRoughness":{"baseColorFactor":[0.38,0.38,0.36,1],"metallicFactor":0,"roughnessFactor":0.82}},{"name":"water","pbrMetallicRoughness":{"baseColorFactor":[0.05,0.48,0.58,0.88],"metallicFactor":0.08,"roughnessFactor":0.25},"alphaMode":"BLEND","doubleSided":true},{"name":"waterLight","pbrMetallicRoughness":{"baseColorFactor":[0.35,0.82,0.84,0.72],"metallicFactor":0.08,"roughnessFactor":0.25},"alphaMode":"BLEND","doubleSided":true},{"name":"grass","pbrMetallicRoughness":{"baseColorFactor":[0.2,0.48,0.2,1],"metallicFactor":0,"roughnessFactor":0.82}},{"name":"grassLight","pbrMetallicRoughness":{"baseColorFactor":[0.34,0.64,0.28,1],"metallicFactor":0,"roughnessFactor":0.82}},{"name":"hedge","pbrMetallicRoughness":{"baseColorFactor":[0.1,0.36,0.12,1],"metallicFactor":0,"roughnessFactor":0.82}},{"name":"earthDark","pbrMetallicRoughness":{"baseColorFactor":[0.27,0.16,0.08,1],"metallicFactor":0,"roughnessFactor":0.82}},{"name":"earthMid","pbrMetallicRoughness":{"baseColorFactor":[0.44,0.29,0.15,1],"metallicFactor":0,"roughnessFactor":0.82}},{"name":"wallWhite","pbrMetallicRoughness":{"baseColorFactor":[0.86,0.84,0.76,1],"metallicFactor":0,"roughnessFactor":0.82}},{"name":"wallGrey","pbrMetallicRoughness":{"baseColorFactor":[0.72,0.72,0.68,1],"metallicFactor":0,"roughnessFactor":0.82}},{"name":"roofGrey","pbrMetallicRoughness":{"baseColorFactor":[0.38,0.42,0.44,1],"metallicFactor":0,"roughnessFactor":0.82}},{"name":"roofDark","pbrMetallicRoughness":{"baseColorFactor":[0.22,0.25,0.27,1],"metallicFactor":0,"roughnessFactor":0.82}},{"name":"gateRed","pbrMetallicRoughness":{"baseColorFactor":[0.7,0.1,0.06,1],"metallicFactor":0,"roughnessFactor":0.82}},{"name":"wood","pbrMetallicRoughness":{"baseColorFactor":[0.34,0.18,0.08,1],"metallicFactor":0,"roughnessFactor":0.82}},{"name":"glassBlue","pbrMetallicRoughness":{"baseColorFactor":[0.42,0.66,0.82,0.88],"metallicFactor":0.08,"roughnessFactor":0.25},"alphaMode":"BLEND","doubleSided":true},{"name":"glassDark","pbrMetallicRoughness":{"baseColorFactor":[0.14,0.28,0.36,0.92],"metallicFactor":0.08,"roughnessFactor":0.25},"alphaMode":"BLEND","doubleSided":true},{"name":"metal","pbrMetallicRoughness":{"baseColorFactor":[0.62,0.66,0.68,1],"metallicFactor":0,"roughnessFactor":0.82}},{"name":"white","pbrMetallicRoughness":{"baseColorFactor":[0.92,0.92,0.86,1],"metallicFactor":0,"roughnessFactor":0.82}},{"name":"blue","pbrMetallicRoughness":{"baseColorFactor":[0.02,0.44,0.84,1],"metallicFactor":0,"roughnessFactor":0.82}},{"name":"black","pbrMetallicRoughness":{"baseColorFactor":[0.05,0.05,0.05,1],"metallicFactor":0,"roughnessFactor":0.82}},{"name":"sakura","pbrMetallicRoughness":{"baseColorFactor":[0.96,0.58,0.78,1],"metallicFactor":0,"roughnessFactor":0.82}},{"name":"lotus","pbrMetallicRoughness":{"baseColorFactor":[0.22,0.62,0.28,1],"metallicFactor":0,"roughnessFactor":0.82}},{"name":"lotusPink","pbrMetallicRoughness":{"baseColorFactor":[0.94,0.5,0.72,1],"metallicFactor":0,"roughnessFactor":0.82}},{"name":"bamboo","pbrMetallicRoughness":{"baseColorFactor":[0.28,0.62,0.2,1],"metallicFactor":0,"roughnessFactor":0.82}},{"name":"carRed","pbrMetallicRoughness":{"baseColorFactor":[0.84,0.06,0.05,1],"metallicFactor":0,"roughnessFactor":0.82}},{"name":"carBlue","pbrMetallicRoughness":{"baseColorFactor":[0.08,0.36,0.82,1],"metallicFactor":0,"roughnessFactor":0.82}},{"name":"carYellow","pbrMetallicRoughness":{"baseColorFactor":[0.92,0.64,0.12,1],"metallicFactor":0,"roughnessFactor":0.82}}],"buffers":[{"uri":"data:application/octet-stream;base64,","byteLength":5184}],"bufferViews":[{"buffer":0,"byteOffset":0,"byteLength":288,"target":34962},{"buffer":0,"byteOffset":288,"byteLength":288,"target":34962},{"buffer":0,"byteOffset":576,"byteLength":72,"target":34963},{"buffer":0,"byteOffset":648,"byteLength":288,"target":34962},{"buffer":0,"byteOffset":936,"byteLength":288,"target":34962},{"buffer":0,"byteOffset":1224,"byteLength":72,"target":34963},{"buffer":0,"byteOffset":1296,"byteLength":1440,"target":34962},{"buffer":0,"byteOffset":2736,"byteLength":1440,"target":34962},{"buffer":0,"byteOffset":4176,"byteLength":360,"target":34963},{"buffer":0,"byteOffset":4536,"byteLength":288,"target":34962},{"buffer":0,"byteOffset":4824,"byteLength":288,"target":34962},{"buffer":0,"byteOffset":5112,"byteLength":72,"target":34963}],"accessors":[{"bufferView":0,"componentType":5126,"count":24,"type":"VEC3","min":[-1.5,0,-1.5],"max":[1.5,0.28,1.5]},{"bufferView":1,"componentType":5126,"count":24,"type":"VEC3"},{"bufferView":2,"componentType":5123,"count":36,"type":"SCALAR","min":[0],"max":[23]},{"bufferView":3,"componentType":5126,"count":24,"type":"VEC3","min":[-0.35,0.28,-0.35],"max":[0.35,0.55,0.35]},{"bufferView":4,"componentType":5126,"count":24,"type":"VEC3"},{"bufferView":5,"componentType":5123,"count":36,"type":"SCALAR","min":[0],"max":[23]},{"bufferView":6,"componentType":5126,"count":120,"type":"VEC3","min":[-0.95,0.55,-0.18],"max":[0.95,3.25,0.18]},{"bufferView":7,"componentType":5126,"count":120,"type":"VEC3"},{"bufferView":8,"componentType":5123,"count":180,"type":"SCALAR","min":[0],"max":[119]},{"bufferView":9,"componentType":5126,"count":24,"type":"VEC3","min":[-0.22,1.72,-0.2],"max":[0.22,2.15,0.2]},{"bufferView":10,"componentType":5126,"count":24,"type":"VEC3"},{"bufferView":11,"componentType":5123,"count":36,"type":"SCALAR","min":[0],"max":[23]}]}