{"asset":{"version":"2.0","generator":"EarthGuardian Shandong horizontal voxel scene"},"scene":0,"scenes":[{"nodes":[0]}],"nodes":[{"mesh":0}],"meshes":[{"primitives":[{"attributes":{"POSITION":0,"NORMAL":1},"indices":2,"material":0},{"attributes":{"POSITION":3,"NORMAL":4},"indices":5,"material":1},{"attributes":{"POSITION":6,"NORMAL":7},"indices":8,"material":2},{"attributes":{"POSITION":9,"NORMAL":10},"indices":11,"material":6},{"attributes":{"POSITION":12,"NORMAL":13},"indices":14,"material":7},{"attributes":{"POSITION":15,"NORMAL":16},"indices":17,"material":4},{"attributes":{"POSITION":18,"NORMAL":19},"indices":20,"material":26},{"attributes":{"POSITION":21,"NORMAL":22},"indices":23,"material":27},{"attributes":{"POSITION":24,"NORMAL":25},"indices":26,"material":3},{"attributes":{"POSITION":27,"NORMAL":28},"indices":29,"material":9},{"attributes":{"POSITION":30,"NORMAL":31},"indices":32,"material":14},{"attributes":{"POSITION":33,"NORMAL":34},"indices":35,"material":16}]}],"materials":[{"name":"asphalt","pbrMetallicRoughness":{"baseColorFactor":[0.16,0.17,0.17,1],"metallicFactor":0,"roughnessFactor":0.82}},{"name":"lane","pbrMetallicRoughness":{"baseColorFactor":[0.92,0.86,0.58,1],"metallicFactor":0,"roughnessFactor":0.82}},{"name":"roadWhite","pbrMetallicRoughness":{"baseColorFactor":[0.96,0.96,0.9,1],"metallicFactor":0,"roughnessFactor":0.82}},{"name":"plaza","pbrMetallicRoughness":{"baseColorFactor":[0.74,0.72,0.66,1],"metallicFactor":0,"roughnessFactor":0.82}},{"name":"stone","pbrMetallicRoughness":{"baseColorFactor":[0.62,0.6,0.55,1],"metallicFactor":0,"roughnessFactor":0.82}},{"name":"stoneDark","pbrMetallicRoughness":{"baseColorFactor":[0.38,0.38,0.36,1],"metallicFactor":0,"roughnessFactor":0.82}},{"name":"water","pbrMetallicRoughness":{"baseColorFactor":[0.05,0.48,0.58,0.88],"metallicFactor":0.08,"roughnessFactor":0.25},"alphaMode":"BLEND","doubleSided":true},{"name":"waterLight","pbrMetallicRoughness":{"baseColorFactor":[0.35,0.82,0.84,0.72],"metallicFactor":0.08,"roughnessFactor":0.25},"alphaMode":"BLEND","doubleSided":true},{"name":"grass","pbrMetallicRoughness":{"baseColorFactor":[0.2,0.48,0.2,1],"metallicFactor":0,"roughnessFactor":0.82}},{"name":"grassLight","pbrMetallicRoughness":{"baseColorFactor":[0.34,0.64,0.28,1],"metallicFactor":0,"roughnessFactor":0.82}},{"name":"hedge","pbrMetallicRoughness":{"baseColorFactor":[0.1,0.36,0.12,1],"metallicFactor":0,"roughnessFactor":0.82}},{"name":"earthDark","pbrMetallicRoughness":{"baseColorFactor":[0.27,0.16,0.08,1],"metallicFactor":0,"roughnessFactor":0.82}},{"name":"earthMid","pbrMetallicRoughness":{"baseColorFactor":[0.44,0.29,0.15,1],"metallicFactor":0,"roughnessFactor":0.82}},{"name":"wallWhite","pbrMetallicRoughness":{"baseColorFactor":[0.86,0.84,0.76,1],"metallicFactor":0,"roughnessFactor":0.82}},{"name":"wallGrey","pbrMetallicRoughness":{"baseColorFactor":[0.72,0.72,0.68,1],"metallicFactor":0,"roughnessFactor":0.82}},{"name":"roofGrey","pbrMetallicRoughness":{"baseColorFactor":[0.38,0.42,0.44,1],"metallicFactor":0,"roughnessFactor":0.82}},{"name":"roofDark","pbrMetallicRoughness":{"baseColorFactor":[0.22,0.25,0.27,1],"metallicFactor":0,"roughnessFactor":0.82}},{"name":"gateRed","pbrMetallicRoughness":{"baseColorFactor":[0.7,0.1,0.06,1],"metallicFactor":0,"roughnessFactor":0.82}},{"name":"wood","pbrMetallicRoughness":{"baseColorFactor":[0.34,0.18,0.08,1],"metallicFactor":0,"roughnessFactor":0.82}},{"name":"glassBlue","pbrMetallicRoughness":{"baseColorFactor":[0.42,0.66,0.82,0.88],"metallicFactor":0.08,"roughnessFactor":0.25},"alphaMode":"BLEND","doubleSided":true},{"name":"glassDark","pbrMetallicRoughness":{"baseColorFactor":[0.14,0.28,0.36,0.92],"metallicFactor":0.08,"roughnessFactor":0.25},"alphaMode":"BLEND","doubleSided":true},{"name":"metal","pbrMetallicRoughness":{"baseColorFactor":[0.62,0.66,0.68,1],"metallicFactor":0,"roughnessFactor":0.82}},{"name":"white","pbrMetallicRoughness":{"baseColorFactor":[0.92,0.92,0.86,1],"metallicFactor":0,"roughnessFactor":0.82}},{"name":"blue","pbrMetallicRoughness":{"baseColorFactor":[0.02,0.44,0.84,1],"metallicFactor":0,"roughnessFactor":0.82}},{"name":"black","pbrMetallicRoughness":{"baseColorFactor":[0.05,0.05,0.05,1],"metallicFactor":0,"roughnessFactor":0.82}},{"name":"sakura","pbrMetallicRoughness":{"baseColorFactor":[0.96,0.58,0.78,1],"metallicFactor":0,"roughnessFactor":0.82}},{"name":"lotus","pbrMetallicRoughness":{"baseColorFactor":[0.22,0.62,0.28,1],"metallicFactor":0,"roughnessFactor":0.82}},{"name":"lotusPink","pbrMetallicRoughness":{"baseColorFactor":[0.94,0.5,0.72,1],"metallicFactor":0,"roughnessFactor":0.82}},{"name":"bamboo","pbrMetallicRoughness":{"baseColorFactor":[0.28,0.62,0.2,1],"metallicFactor":0,"roughnessFactor":0.82}},{"name":"carRed","pbrMetallicRoughness":{"baseColorFactor":[0.84,0.06,0.05,1],"metallicFactor":0,"roughnessFactor":0.82}},{"name":"carBlue","pbrMetallicRoughness":{"baseColorFactor":[0.08,0.36,0.82,1],"metallicFactor":0,"roughnessFactor":0.82}},{"name":"carYellow","pbrMetallicRoughness":{"baseColorFactor":[0.92,0.64,0.12,1],"metallicFactor":0,"roughnessFactor":0.82}}],"buffers":[{"uri":"data:application/octet-stream;base64,","byteLength":40824}],"bufferViews":[{"buffer":0,"byteOffset":0,"byteLength":2304,"target":34962},{"buffer":0,"byteOffset":2304,"byteLength":2304,"target":34962},{"buffer":0,"byteOffset":4608,"byteLength":576,"target":34963},{"buffer":0,"byteOffset":5184,"byteLength":2304,"target":34962},{"buffer":0,"byteOffset":7488,"byteLength":2304,"target":34962},{"buffer":0,"byteOffset":9792,"byteLength":576,"target":34963},{"buffer":0,"byteOffset":10368,"byteLength":4608,"target":34962},{"buffer":0,"byteOffset":14976,"byteLength":4608,"target":34962},{"buffer":0,"byteOffset":19584,"byteLength":1152,"target":34963},{"buffer":0,"byteOffset":20736,"byteLength":864,"target":34962},{"buffer":0,"byteOffset":21600,"byteLength":864,"target":34962},{"buffer":0,"byteOffset":22464,"byteLength":216,"target":34963},{"buffer":0,"byteOffset":22680,"byteLength":864,"target":34962},{"buffer":0,"byteOffset":23544,"byteLength":864,"target":34962},{"buffer":0,"byteOffset":24408,"byteLength":216,"target":34963},{"buffer":0,"byteOffset":24624,"byteLength":1440,"target":34962},{"buffer":0,"byteOffset":26064,"byteLength":1440,"target":34962},{"buffer":0,"byteOffset":27504,"byteLength":360,"target":34963},{"buffer":0,"byteOffset":27864,"byteLength":2016,"target":34962},{"buffer":0,"byteOffset":29880,"byteLength":2016,"target":34962},{"buffer":0,"byteOffset":31896,"byteLength":504,"target":34963},{"buffer":0,"byteOffset":32400,"byteLength":2016,"target":34962},{"buffer":0,"byteOffset":34416,"byteLength":2016,"target":34962},{"buffer":0,"byteOffset":36432,"byteLength":504,"target":34963},{"buffer":0,"byteOffset":36936,"byteLength":576,"target":34962},{"buffer":0,"byteOffset":37512,"byteLength":576,"target":34962},{"buffer":0,"byteOffset":38088,"byteLength":144,"target":34963},{"buffer":0,"byteOffset":38232,"byteLength":576,"target":34962},{"buffer":0,"byteOffset":38808,"byteLength":576,"target":34962},{"buffer":0,"byteOffset":39384,"byteLength":144,"target":34963},{"buffer":0,"byteOffset":39528,"byteLength":288,"target":34962},{"buffer":0,"byteOffset":39816,"byteLength":288,"target":34962},{"buffer":0,"byteOffset":40104,"byteLength":72,"target":34963},{"buffer":0,"byteOffset":40176,"byteLength":288,"target":34962},{"buffer":0,"byteOffset":40464,"byteLength":288,"target":34962},{"buffer":0,"byteOffset":40752,"byteLength":72,"target":34963}],"accessors":[{"bufferView":0,"componentType":5126,"count":192,"type":"VEC3","min":[-17.1,0.16,-8.4],"max":[17.05,0.24,5.4]},{"bufferView":1,"componentType":5126,"count":192,"type":"VEC3"},{"bufferView":2,"componentType":5123,"count":288,"type":"SCALAR","min":[0],"max":[191]},{"bufferView":3,"componentType":5126,"count":192,"type":"VEC3","min":[-17.1,0.245,-7.55],"max":[17.05,0.27,4.55]},{"bufferView":4,"componentType":5126,"count":192,"type":"VEC3"},{"bufferView":5,"componentType":5123,"count":288,"type":"SCALAR","min":[0],"max":[191]},{"bufferView":6,"componentType":5126,"count":384,"type":"VEC3","min":[-17.1,0.248,-8.15],"max":[17.05,0.272,5.15]},{"bufferView":7,"componentType":5126,"count":384,"type":"VEC3"},{"bufferView":8,"componentType":5123,"count":576,"type":"SCALAR","min":[0],"max":[383]},{"bufferView":9,"componentType":5126,"count":72,"type":"VEC3","min":[-16,0.05,-8.6],"max":[15.5,0.18,8.8]},{"bufferView":10,"componentType":5126,"count":72,"type":"VEC3"},{"bufferView":11,"componentType":5123,"count":108,"type":"SCALAR","min":[0],"max":[71]},{"bufferView":12,"componentType":5126,"count":72,"type":"VEC3","min":[-14.8,0.08,-8],"max":[14.9,0.2,8.2]},{"bufferView":13,"componentType":5126,"count":72,"type":"VEC3"},{"bufferView":14,"componentType":5123,"count":108,"type":"SCALAR","min":[0],"max":[71]},{"bufferView":15,"componentType":5126,"count":120,"type":"VEC3","min":[-16.3,0.18,-8.8],"max":[0.7,0.42,7.8]},{"bufferView":16,"componentType":5126,"count":120,"type":"VEC3"},{"bufferView":17,"componentType":5123,"count":180,"type":"SCALAR","min":[0],"max":[119]},{"bufferView":18,"componentType":5126,"count":168,"type":"VEC3","min":[8.82,0.22,-7.32],"max":[14.379999999999999,0.28,7.32]},{"bufferView":19,"componentType":5126,"count":168,"type":"VEC3"},{"bufferView":20,"componentType":5123,"count":252,"type":"SCALAR","min":[0],"max":[167]},{"bufferView":21,"componentType":5126,"count":168,"type":"VEC3","min":[8.96,0.28,-7.24],"max":[14.239999999999998,0.36,7.24]},{"bufferView":22,"componentType":5126,"count":168,"type":"VEC3"},{"bufferView":23,"componentType":5123,"count":252,"type":"SCALAR","min":[0],"max":[167]},{"bufferView":24,"componentType":5126,"count":48,"type":"VEC3","min":[-5.6,0.18,-8.4],"max":[3.6,0.52,-4.6]},{"bufferView":25,"componentType":5126,"count":48,"type":"VEC3"},{"bufferView":26,"componentType":5123,"count":72,"type":"SCALAR","min":[0],"max":[47]},{"bufferView":27,"componentType":5126,"count":48,"type":"VEC3","min":[-4.5,0.18,-0.7],"max":[4.4,0.3,2]},{"bufferView":28,"componentType":5126,"count":48,"type":"VEC3"},{"bufferView":29,"componentType":5123,"count":72,"type":"SCALAR","min":[0],"max":[47]},{"bufferView":30,"componentType":5126,"count":24,"type":"VEC3","min":[-16,0.2,8.8],"max":[16,1.15,9.25]},{"bufferView":31,"componentType":5126,"count":24,"type":"VEC3"},{"bufferView":32,"componentType":5123,"count":36,"type":"SCALAR","min":[0],"max":[23]},{"bufferView":33,"componentType":5126,"count":24,"type":"VEC3","min":[-16,1.15,8.65],"max":[16,1.35,9.4]},{"bufferView":34,"componentType":5126,"count":24,"type":"VEC3"},{"bufferView":35,"componentType":5123,"count":36,"type":"SCALAR","min":[0],"max":[23]}]}