{"asset":{"version":"2.0","generator":"EarthGuardian refined Shanghai landmark voxels"},"scene":0,"scenes":[{"nodes":[0]}],"nodes":[{"mesh":0}],"meshes":[{"primitives":[{"attributes":{"POSITION":0,"NORMAL":1},"indices":2,"material":9},{"attributes":{"POSITION":3,"NORMAL":4},"indices":5,"material":11},{"attributes":{"POSITION":6,"NORMAL":7},"indices":8,"material":15},{"attributes":{"POSITION":9,"NORMAL":10},"indices":11,"material":13},{"attributes":{"POSITION":12,"NORMAL":13},"indices":14,"material":16}]}],"materials":[{"name":"water","pbrMetallicRoughness":{"baseColorFactor":[0.03,0.48,0.58,0.84],"metallicFactor":0.1,"roughnessFactor":0.22},"alphaMode":"BLEND","doubleSided":true},{"name":"waterFoam","pbrMetallicRoughness":{"baseColorFactor":[0.45,0.86,0.88,0.64],"metallicFactor":0.1,"roughnessFactor":0.22},"alphaMode":"BLEND","doubleSided":true},{"name":"land","pbrMetallicRoughness":{"baseColorFactor":[0.53,0.58,0.48,1],"metallicFactor":0,"roughnessFactor":0.82}},{"name":"grass","pbrMetallicRoughness":{"baseColorFactor":[0.14,0.47,0.2,1],"metallicFactor":0,"roughnessFactor":0.82}},{"name":"grassLight","pbrMetallicRoughness":{"baseColorFactor":[0.24,0.62,0.27,1],"metallicFactor":0,"roughnessFactor":0.82}},{"name":"road","pbrMetallicRoughness":{"baseColorFactor":[0.28,0.3,0.31,1],"metallicFactor":0,"roughnessFactor":0.82}},{"name":"plaza","pbrMetallicRoughness":{"baseColorFactor":[0.76,0.72,0.62,1],"metallicFactor":0,"roughnessFactor":0.82}},{"name":"quay","pbrMetallicRoughness":{"baseColorFactor":[0.62,0.58,0.48,1],"metallicFactor":0,"roughnessFactor":0.82}},{"name":"earth","pbrMetallicRoughness":{"baseColorFactor":[0.34,0.22,0.13,1],"metallicFactor":0,"roughnessFactor":0.82}},{"name":"concrete","pbrMetallicRoughness":{"baseColorFactor":[0.62,0.64,0.62,1],"metallicFactor":0,"roughnessFactor":0.82}},{"name":"darkConcrete","pbrMetallicRoughness":{"baseColorFactor":[0.32,0.34,0.34,1],"metallicFactor":0,"roughnessFactor":0.82}},{"name":"glassBlue","pbrMetallicRoughness":{"baseColorFactor":[0.28,0.63,0.78,0.88],"metallicFactor":0.1,"roughnessFactor":0.22},"alphaMode":"BLEND","doubleSided":true},{"name":"glassCyan","pbrMetallicRoughness":{"baseColorFactor":[0.45,0.83,0.9,0.78],"metallicFactor":0.1,"roughnessFactor":0.22},"alphaMode":"BLEND","doubleSided":true},{"name":"glassDark","pbrMetallicRoughness":{"baseColorFactor":[0.08,0.22,0.31,0.94],"metallicFactor":0.1,"roughnessFactor":0.22},"alphaMode":"BLEND","doubleSided":true},{"name":"glassSilver","pbrMetallicRoughness":{"baseColorFactor":[0.66,0.78,0.82,0.86],"metallicFactor":0.1,"roughnessFactor":0.22},"alphaMode":"BLEND","doubleSided":true},{"name":"steel","pbrMetallicRoughness":{"baseColorFactor":[0.66,0.69,0.68,1],"metallicFactor":0.1,"roughnessFactor":0.82}},{"name":"steelDark","pbrMetallicRoughness":{"baseColorFactor":[0.32,0.36,0.38,1],"metallicFactor":0.1,"roughnessFactor":0.82}},{"name":"pearlRed","pbrMetallicRoughness":{"baseColorFactor":[0.8,0.1,0.16,1],"metallicFactor":0,"roughnessFactor":0.82}},{"name":"pearlPink","pbrMetallicRoughness":{"baseColorFactor":[0.95,0.36,0.46,1],"metallicFactor":0,"roughnessFactor":0.82}},{"name":"pearlWhite","pbrMetallicRoughness":{"baseColorFactor":[0.94,0.88,0.76,1],"metallicFactor":0,"roughnessFactor":0.82}},{"name":"gold","pbrMetallicRoughness":{"baseColorFactor":[0.96,0.7,0.18,1],"metallicFactor":0,"roughnessFactor":0.82}},{"name":"bundStone","pbrMetallicRoughness":{"baseColorFactor":[0.78,0.66,0.48,1],"metallicFactor":0,"roughnessFactor":0.82}},{"name":"bundDark","pbrMetallicRoughness":{"baseColorFactor":[0.46,0.35,0.23,1],"metallicFactor":0,"roughnessFactor":0.82}},{"name":"roofGreen","pbrMetallicRoughness":{"baseColorFactor":[0.08,0.38,0.36,1],"metallicFactor":0,"roughnessFactor":0.82}},{"name":"neon","pbrMetallicRoughness":{"baseColorFactor":[0.18,0.95,0.9,1],"metallicFactor":0,"roughnessFactor":0.82}},{"name":"warning","pbrMetallicRoughness":{"baseColorFactor":[1,0.45,0.04,1],"metallicFactor":0,"roughnessFactor":0.82}},{"name":"red","pbrMetallicRoughness":{"baseColorFactor":[0.82,0.05,0.04,1],"metallicFactor":0,"roughnessFactor":0.82}},{"name":"white","pbrMetallicRoughness":{"baseColorFactor":[0.96,0.96,0.9,1],"metallicFactor":0,"roughnessFactor":0.82}},{"name":"black","pbrMetallicRoughness":{"baseColorFactor":[0.04,0.04,0.04,1],"metallicFactor":0,"roughnessFactor":0.82}},{"name":"treeTrunk","pbrMetallicRoughness":{"baseColorFactor":[0.35,0.2,0.1,1],"metallicFactor":0,"roughnessFactor":0.82}},{"name":"tree","pbrMetallicRoughness":{"baseColorFactor":[0.1,0.42,0.16,1],"metallicFactor":0,"roughnessFactor":0.82}},{"name":"rust","pbrMetallicRoughness":{"baseColorFactor":[0.55,0.22,0.1,1],"metallicFactor":0,"roughnessFactor":0.82}},{"name":"crate","pbrMetallicRoughness":{"baseColorFactor":[0.58,0.34,0.14,1],"metallicFactor":0,"roughnessFactor":0.82}},{"name":"tan","pbrMetallicRoughness":{"baseColorFactor":[0.75,0.62,0.44,1],"metallicFactor":0,"roughnessFactor":0.82}}],"buffers":[{"uri":"data:application/octet-stream;base64,","byteLength":40824}],"bufferViews":[{"buffer":0,"byteOffset":0,"byteLength":288,"target":34962},{"buffer":0,"byteOffset":288,"byteLength":288,"target":34962},{"buffer":0,"byteOffset":576,"byteLength":72,"target":34963},{"buffer":0,"byteOffset":648,"byteLength":4032,"target":34962},{"buffer":0,"byteOffset":4680,"byteLength":4032,"target":34962},{"buffer":0,"byteOffset":8712,"byteLength":1008,"target":34963},{"buffer":0,"byteOffset":9720,"byteLength":7200,"target":34962},{"buffer":0,"byteOffset":16920,"byteLength":7200,"target":34962},{"buffer":0,"byteOffset":24120,"byteLength":1800,"target":34963},{"buffer":0,"byteOffset":25920,"byteLength":2880,"target":34962},{"buffer":0,"byteOffset":28800,"byteLength":2880,"target":34962},{"buffer":0,"byteOffset":31680,"byteLength":720,"target":34963},{"buffer":0,"byteOffset":32400,"byteLength":3744,"target":34962},{"buffer":0,"byteOffset":36144,"byteLength":3744,"target":34962},{"buffer":0,"byteOffset":39888,"byteLength":936,"target":34963}],"accessors":[{"bufferView":0,"componentType":5126,"count":24,"type":"VEC3","min":[-1.3,0,-1.1],"max":[1.3,0.16,1.1]},{"bufferView":1,"componentType":5126,"count":24,"type":"VEC3"},{"bufferView":2,"componentType":5123,"count":36,"type":"SCALAR","min":[0],"max":[23]},{"bufferView":3,"componentType":5126,"count":336,"type":"VEC3","min":[-1.05,0.27499999999999997,-0.725],"max":[1.05,5.745,0.725]},{"bufferView":4,"componentType":5126,"count":336,"type":"VEC3"},{"bufferView":5,"componentType":5123,"count":504,"type":"SCALAR","min":[0],"max":[335]},{"bufferView":6,"componentType":5126,"count":600,"type":"VEC3","min":[-1.11,0.4125,-0.775],"max":[1.11,7.605,0.775]},{"bufferView":7,"componentType":5126,"count":600,"type":"VEC3"},{"bufferView":8,"componentType":5123,"count":900,"type":"SCALAR","min":[0],"max":[599]},{"bufferView":9,"componentType":5126,"count":240,"type":"VEC3","min":[-1.05,0.47500000000000003,-0.725],"max":[1.05,5.545,0.725]},{"bufferView":10,"componentType":5126,"count":240,"type":"VEC3"},{"bufferView":11,"componentType":5123,"count":360,"type":"SCALAR","min":[0],"max":[239]},{"bufferView":12,"componentType":5126,"count":312,"type":"VEC3","min":[-1.1600000000000001,0.88,-0.815],"max":[1.1600000000000001,7.05,0.815]},{"bufferView":13,"componentType":5126,"count":312,"type":"VEC3"},{"bufferView":14,"componentType":5123,"count":468,"type":"SCALAR","min":[0],"max":[311]}]}