{"asset":{"version":"2.0","generator":"EarthGuardian Jinan tiger spring voxels"},"scene":0,"scenes":[{"nodes":[0]}],"nodes":[{"mesh":0}],"meshes":[{"primitives":[{"attributes":{"POSITION":0,"NORMAL":1},"indices":2,"material":7},{"attributes":{"POSITION":3,"NORMAL":4},"indices":5,"material":6},{"attributes":{"POSITION":6,"NORMAL":7},"indices":8,"material":23},{"attributes":{"POSITION":9,"NORMAL":10},"indices":11,"material":25},{"attributes":{"POSITION":12,"NORMAL":13},"indices":14,"material":24},{"attributes":{"POSITION":15,"NORMAL":16},"indices":17,"material":1},{"attributes":{"POSITION":18,"NORMAL":19},"indices":20,"material":0}]}],"materials":[{"name":"water","pbrMetallicRoughness":{"baseColorFactor":[0.08,0.52,0.62,0.86],"metallicFactor":0.08,"roughnessFactor":0.24},"alphaMode":"BLEND","doubleSided":true},{"name":"waterLight","pbrMetallicRoughness":{"baseColorFactor":[0.35,0.78,0.82,0.72],"metallicFactor":0.08,"roughnessFactor":0.24},"alphaMode":"BLEND","doubleSided":true},{"name":"pondDeep","pbrMetallicRoughness":{"baseColorFactor":[0.05,0.42,0.55,0.92],"metallicFactor":0.08,"roughnessFactor":0.24},"alphaMode":"BLEND","doubleSided":true},{"name":"earthDark","pbrMetallicRoughness":{"baseColorFactor":[0.28,0.16,0.08,1],"metallicFactor":0,"roughnessFactor":0.82}},{"name":"earthMid","pbrMetallicRoughness":{"baseColorFactor":[0.42,0.28,0.14,1],"metallicFactor":0,"roughnessFactor":0.82}},{"name":"earthLight","pbrMetallicRoughness":{"baseColorFactor":[0.58,0.42,0.24,1],"metallicFactor":0,"roughnessFactor":0.82}},{"name":"stone","pbrMetallicRoughness":{"baseColorFactor":[0.62,0.6,0.54,1],"metallicFactor":0,"roughnessFactor":0.82}},{"name":"stoneDark","pbrMetallicRoughness":{"baseColorFactor":[0.38,0.36,0.34,1],"metallicFactor":0,"roughnessFactor":0.82}},{"name":"stonePath","pbrMetallicRoughness":{"baseColorFactor":[0.72,0.68,0.58,1],"metallicFactor":0,"roughnessFactor":0.82}},{"name":"grass","pbrMetallicRoughness":{"baseColorFactor":[0.22,0.52,0.24,1],"metallicFactor":0,"roughnessFactor":0.82}},{"name":"grassLight","pbrMetallicRoughness":{"baseColorFactor":[0.32,0.64,0.28,1],"metallicFactor":0,"roughnessFactor":0.82}},{"name":"grassDark","pbrMetallicRoughness":{"baseColorFactor":[0.14,0.4,0.16,1],"metallicFactor":0,"roughnessFactor":0.82}},{"name":"roofGrey","pbrMetallicRoughness":{"baseColorFactor":[0.48,0.5,0.52,1],"metallicFactor":0,"roughnessFactor":0.82}},{"name":"roofDark","pbrMetallicRoughness":{"baseColorFactor":[0.32,0.34,0.36,1],"metallicFactor":0,"roughnessFactor":0.82}},{"name":"wallWhite","pbrMetallicRoughness":{"baseColorFactor":[0.9,0.88,0.82,1],"metallicFactor":0,"roughnessFactor":0.82}},{"name":"wallGrey","pbrMetallicRoughness":{"baseColorFactor":[0.78,0.76,0.7,1],"metallicFactor":0,"roughnessFactor":0.82}},{"name":"woodDark","pbrMetallicRoughness":{"baseColorFactor":[0.28,0.16,0.08,1],"metallicFactor":0,"roughnessFactor":0.82}},{"name":"woodBrown","pbrMetallicRoughness":{"baseColorFactor":[0.42,0.24,0.12,1],"metallicFactor":0,"roughnessFactor":0.82}},{"name":"roofGold","pbrMetallicRoughness":{"baseColorFactor":[0.94,0.68,0.12,1],"metallicFactor":0,"roughnessFactor":0.82}},{"name":"roofGoldDark","pbrMetallicRoughness":{"baseColorFactor":[0.72,0.42,0.06,1],"metallicFactor":0,"roughnessFactor":0.82}},{"name":"vermilion","pbrMetallicRoughness":{"baseColorFactor":[0.82,0.12,0.08,1],"metallicFactor":0,"roughnessFactor":0.82}},{"name":"lanternRed","pbrMetallicRoughness":{"baseColorFactor":[0.9,0.06,0.04,1],"metallicFactor":0,"roughnessFactor":0.82}},{"name":"lanternGlow","pbrMetallicRoughness":{"baseColorFactor":[1,0.72,0.18,1],"metallicFactor":0,"roughnessFactor":0.82}},{"name":"tigerOrange","pbrMetallicRoughness":{"baseColorFactor":[0.92,0.48,0.08,1],"metallicFactor":0,"roughnessFactor":0.82}},{"name":"tigerWhite","pbrMetallicRoughness":{"baseColorFactor":[0.94,0.9,0.82,1],"metallicFactor":0,"roughnessFactor":0.82}},{"name":"tigerBlack","pbrMetallicRoughness":{"baseColorFactor":[0.12,0.1,0.08,1],"metallicFactor":0,"roughnessFactor":0.82}},{"name":"leaf","pbrMetallicRoughness":{"baseColorFactor":[0.18,0.58,0.2,1],"metallicFactor":0,"roughnessFactor":0.82}},{"name":"willow","pbrMetallicRoughness":{"baseColorFactor":[0.42,0.72,0.28,1],"metallicFactor":0,"roughnessFactor":0.82}},{"name":"willowLight","pbrMetallicRoughness":{"baseColorFactor":[0.58,0.82,0.38,1],"metallicFactor":0,"roughnessFactor":0.82}},{"name":"pine","pbrMetallicRoughness":{"baseColorFactor":[0.1,0.42,0.16,1],"metallicFactor":0,"roughnessFactor":0.82}},{"name":"pineLight","pbrMetallicRoughness":{"baseColorFactor":[0.18,0.55,0.22,1],"metallicFactor":0,"roughnessFactor":0.82}},{"name":"trunk","pbrMetallicRoughness":{"baseColorFactor":[0.35,0.2,0.1,1],"metallicFactor":0,"roughnessFactor":0.82}},{"name":"lotus","pbrMetallicRoughness":{"baseColorFactor":[0.22,0.62,0.28,1],"metallicFactor":0,"roughnessFactor":0.82}},{"name":"lotusPink","pbrMetallicRoughness":{"baseColorFactor":[0.95,0.52,0.72,1],"metallicFactor":0,"roughnessFactor":0.82}},{"name":"boatWood","pbrMetallicRoughness":{"baseColorFactor":[0.52,0.32,0.14,1],"metallicFactor":0,"roughnessFactor":0.82}},{"name":"boatCover","pbrMetallicRoughness":{"baseColorFactor":[0.38,0.22,0.1,1],"metallicFactor":0,"roughnessFactor":0.82}},{"name":"tabletBlue","pbrMetallicRoughness":{"baseColorFactor":[0.12,0.32,0.58,1],"metallicFactor":0,"roughnessFactor":0.82}},{"name":"black","pbrMetallicRoughness":{"baseColorFactor":[0.06,0.06,0.06,1],"metallicFactor":0,"roughnessFactor":0.82}},{"name":"white","pbrMetallicRoughness":{"baseColorFactor":[0.96,0.94,0.88,1],"metallicFactor":0,"roughnessFactor":0.82}}],"buffers":[{"uri":"data:application/octet-stream;base64,","byteLength":10368}],"bufferViews":[{"buffer":0,"byteOffset":0,"byteLength":288,"target":34962},{"buffer":0,"byteOffset":288,"byteLength":288,"target":34962},{"buffer":0,"byteOffset":576,"byteLength":72,"target":34963},{"buffer":0,"byteOffset":648,"byteLength":576,"target":34962},{"buffer":0,"byteOffset":1224,"byteLength":576,"target":34962},{"buffer":0,"byteOffset":1800,"byteLength":144,"target":34963},{"buffer":0,"byteOffset":1944,"byteLength":576,"target":34962},{"buffer":0,"byteOffset":2520,"byteLength":576,"target":34962},{"buffer":0,"byteOffset":3096,"byteLength":144,"target":34963},{"buffer":0,"byteOffset":3240,"byteLength":1728,"target":34962},{"buffer":0,"byteOffset":4968,"byteLength":1728,"target":34962},{"buffer":0,"byteOffset":6696,"byteLength":432,"target":34963},{"buffer":0,"byteOffset":7128,"byteLength":576,"target":34962},{"buffer":0,"byteOffset":7704,"byteLength":576,"target":34962},{"buffer":0,"byteOffset":8280,"byteLength":144,"target":34963},{"buffer":0,"byteOffset":8424,"byteLength":288,"target":34962},{"buffer":0,"byteOffset":8712,"byteLength":288,"target":34962},{"buffer":0,"byteOffset":9000,"byteLength":72,"target":34963},{"buffer":0,"byteOffset":9072,"byteLength":576,"target":34962},{"buffer":0,"byteOffset":9648,"byteLength":576,"target":34962},{"buffer":0,"byteOffset":10224,"byteLength":144,"target":34963}],"accessors":[{"bufferView":0,"componentType":5126,"count":24,"type":"VEC3","min":[-2,0,-0.65],"max":[2,2.6,0.2]},{"bufferView":1,"componentType":5126,"count":24,"type":"VEC3"},{"bufferView":2,"componentType":5123,"count":36,"type":"SCALAR","min":[0],"max":[23]},{"bufferView":3,"componentType":5126,"count":48,"type":"VEC3","min":[-1.6,0,-0.55],"max":[1.6,2.8,2.4]},{"bufferView":4,"componentType":5126,"count":48,"type":"VEC3"},{"bufferView":5,"componentType":5123,"count":72,"type":"SCALAR","min":[0],"max":[47]},{"bufferView":6,"componentType":5126,"count":48,"type":"VEC3","min":[-1.1,1.6,0],"max":[1.1,2.6,1.35]},{"bufferView":7,"componentType":5126,"count":48,"type":"VEC3"},{"bufferView":8,"componentType":5123,"count":72,"type":"SCALAR","min":[0],"max":[47]},{"bufferView":9,"componentType":5126,"count":144,"type":"VEC3","min":[-0.7,1.95,1.26],"max":[0.6920000000000001,2.192,1.484]},{"bufferView":10,"componentType":5126,"count":144,"type":"VEC3"},{"bufferView":11,"componentType":5123,"count":216,"type":"SCALAR","min":[0],"max":[143]},{"bufferView":12,"componentType":5126,"count":48,"type":"VEC3","min":[-0.35,2.15,1.32],"max":[0.37,2.27,1.44]},{"bufferView":13,"componentType":5126,"count":48,"type":"VEC3"},{"bufferView":14,"componentType":5123,"count":72,"type":"SCALAR","min":[0],"max":[47]},{"bufferView":15,"componentType":5126,"count":24,"type":"VEC3","min":[-0.12,0.5,1.35],"max":[0.12,1.55,1.55]},{"bufferView":16,"componentType":5126,"count":24,"type":"VEC3"},{"bufferView":17,"componentType":5123,"count":36,"type":"SCALAR","min":[0],"max":[23]},{"bufferView":18,"componentType":5126,"count":48,"type":"VEC3","min":[-1.2,0.05,1.35],"max":[1.2,1.2,2.2]},{"bufferView":19,"componentType":5126,"count":48,"type":"VEC3"},{"bufferView":20,"componentType":5123,"count":72,"type":"SCALAR","min":[0],"max":[47]}]}