{"asset":{"version":"2.0","generator":"EarthGuardian refined Beijing voxel assets"},"scene":0,"scenes":[{"nodes":[0]}],"nodes":[{"mesh":0}],"meshes":[{"primitives":[{"attributes":{"POSITION":0,"NORMAL":1},"indices":2,"material":8},{"attributes":{"POSITION":3,"NORMAL":4},"indices":5,"material":7},{"attributes":{"POSITION":6,"NORMAL":7},"indices":8,"material":0},{"attributes":{"POSITION":9,"NORMAL":10},"indices":11,"material":3},{"attributes":{"POSITION":12,"NORMAL":13},"indices":14,"material":4},{"attributes":{"POSITION":15,"NORMAL":16},"indices":17,"material":5},{"attributes":{"POSITION":18,"NORMAL":19},"indices":20,"material":6},{"attributes":{"POSITION":21,"NORMAL":22},"indices":23,"material":24}]}],"materials":[{"name":"palaceRed","pbrMetallicRoughness":{"baseColorFactor":[0.7,0.06,0.035,1],"metallicFactor":0,"roughnessFactor":0.82}},{"name":"darkRed","pbrMetallicRoughness":{"baseColorFactor":[0.38,0.025,0.02,1],"metallicFactor":0,"roughnessFactor":0.82}},{"name":"vermilion","pbrMetallicRoughness":{"baseColorFactor":[0.88,0.08,0.035,1],"metallicFactor":0,"roughnessFactor":0.82}},{"name":"roofGold","pbrMetallicRoughness":{"baseColorFactor":[0.95,0.48,0.08,1],"metallicFactor":0,"roughnessFactor":0.82}},{"name":"roofDark","pbrMetallicRoughness":{"baseColorFactor":[0.52,0.2,0.045,1],"metallicFactor":0,"roughnessFactor":0.82}},{"name":"plaqueGold","pbrMetallicRoughness":{"baseColorFactor":[1,0.72,0.12,1],"metallicFactor":0,"roughnessFactor":0.82}},{"name":"plaqueBlue","pbrMetallicRoughness":{"baseColorFactor":[0.08,0.2,0.42,1],"metallicFactor":0,"roughnessFactor":0.82}},{"name":"marble","pbrMetallicRoughness":{"baseColorFactor":[0.88,0.84,0.72,1],"metallicFactor":0,"roughnessFactor":0.82}},{"name":"stone","pbrMetallicRoughness":{"baseColorFactor":[0.62,0.6,0.54,1],"metallicFactor":0,"roughnessFactor":0.82}},{"name":"darkStone","pbrMetallicRoughness":{"baseColorFactor":[0.32,0.32,0.31,1],"metallicFactor":0,"roughnessFactor":0.82}},{"name":"glassBlue","pbrMetallicRoughness":{"baseColorFactor":[0.34,0.66,0.78,0.86],"metallicFactor":0.08,"roughnessFactor":0.28},"alphaMode":"BLEND","doubleSided":true},{"name":"glassDark","pbrMetallicRoughness":{"baseColorFactor":[0.1,0.27,0.36,0.94],"metallicFactor":0.08,"roughnessFactor":0.28},"alphaMode":"BLEND","doubleSided":true},{"name":"glassLight","pbrMetallicRoughness":{"baseColorFactor":[0.6,0.86,0.92,0.78],"metallicFactor":0.08,"roughnessFactor":0.28},"alphaMode":"BLEND","doubleSided":true},{"name":"steelWhite","pbrMetallicRoughness":{"baseColorFactor":[0.88,0.9,0.88,1],"metallicFactor":0.08,"roughnessFactor":0.82}},{"name":"steelGrey","pbrMetallicRoughness":{"baseColorFactor":[0.5,0.53,0.53,1],"metallicFactor":0.08,"roughnessFactor":0.82}},{"name":"fieldGreen","pbrMetallicRoughness":{"baseColorFactor":[0.12,0.5,0.26,1],"metallicFactor":0,"roughnessFactor":0.82}},{"name":"grass","pbrMetallicRoughness":{"baseColorFactor":[0.3,0.58,0.23,1],"metallicFactor":0,"roughnessFactor":0.82}},{"name":"grassDark","pbrMetallicRoughness":{"baseColorFactor":[0.2,0.43,0.17,1],"metallicFactor":0,"roughnessFactor":0.82}},{"name":"pond","pbrMetallicRoughness":{"baseColorFactor":[0.12,0.5,0.68,0.88],"metallicFactor":0,"roughnessFactor":0.82},"alphaMode":"BLEND","doubleSided":true},{"name":"pondLight","pbrMetallicRoughness":{"baseColorFactor":[0.3,0.78,0.82,0.7],"metallicFactor":0,"roughnessFactor":0.82},"alphaMode":"BLEND","doubleSided":true},{"name":"lotusPink","pbrMetallicRoughness":{"baseColorFactor":[0.95,0.5,0.74,1],"metallicFactor":0,"roughnessFactor":0.82}},{"name":"leaf","pbrMetallicRoughness":{"baseColorFactor":[0.16,0.58,0.18,1],"metallicFactor":0,"roughnessFactor":0.82}},{"name":"bamboo","pbrMetallicRoughness":{"baseColorFactor":[0.22,0.66,0.18,1],"metallicFactor":0,"roughnessFactor":0.82}},{"name":"bambooDark","pbrMetallicRoughness":{"baseColorFactor":[0.11,0.36,0.08,1],"metallicFactor":0,"roughnessFactor":0.82}},{"name":"lanternRed","pbrMetallicRoughness":{"baseColorFactor":[0.9,0.03,0.02,1],"metallicFactor":0,"roughnessFactor":0.82}},{"name":"lanternGlow","pbrMetallicRoughness":{"baseColorFactor":[1,0.7,0.18,1],"metallicFactor":0,"roughnessFactor":0.82}},{"name":"sakuraBark","pbrMetallicRoughness":{"baseColorFactor":[0.42,0.22,0.12,1],"metallicFactor":0,"roughnessFactor":0.82}},{"name":"sakura","pbrMetallicRoughness":{"baseColorFactor":[0.98,0.58,0.78,1],"metallicFactor":0,"roughnessFactor":0.82}},{"name":"sakuraLight","pbrMetallicRoughness":{"baseColorFactor":[1,0.78,0.9,1],"metallicFactor":0,"roughnessFactor":0.82}},{"name":"black","pbrMetallicRoughness":{"baseColorFactor":[0.04,0.04,0.035,1],"metallicFactor":0,"roughnessFactor":0.82}},{"name":"white","pbrMetallicRoughness":{"baseColorFactor":[0.96,0.94,0.86,1],"metallicFactor":0,"roughnessFactor":0.82}}],"buffers":[{"uri":"data:application/octet-stream;base64,","byteLength":40176}],"bufferViews":[{"buffer":0,"byteOffset":0,"byteLength":288,"target":34962},{"buffer":0,"byteOffset":288,"byteLength":288,"target":34962},{"buffer":0,"byteOffset":576,"byteLength":72,"target":34963},{"buffer":0,"byteOffset":648,"byteLength":1440,"target":34962},{"buffer":0,"byteOffset":2088,"byteLength":1440,"target":34962},{"buffer":0,"byteOffset":3528,"byteLength":360,"target":34963},{"buffer":0,"byteOffset":3888,"byteLength":2304,"target":34962},{"buffer":0,"byteOffset":6192,"byteLength":2304,"target":34962},{"buffer":0,"byteOffset":8496,"byteLength":576,"target":34963},{"buffer":0,"byteOffset":9072,"byteLength":3456,"target":34962},{"buffer":0,"byteOffset":12528,"byteLength":3456,"target":34962},{"buffer":0,"byteOffset":15984,"byteLength":864,"target":34963},{"buffer":0,"byteOffset":16848,"byteLength":2592,"target":34962},{"buffer":0,"byteOffset":19440,"byteLength":2592,"target":34962},{"buffer":0,"byteOffset":22032,"byteLength":648,"target":34963},{"buffer":0,"byteOffset":22680,"byteLength":6336,"target":34962},{"buffer":0,"byteOffset":29016,"byteLength":6336,"target":34962},{"buffer":0,"byteOffset":35352,"byteLength":1584,"target":34963},{"buffer":0,"byteOffset":36936,"byteLength":288,"target":34962},{"buffer":0,"byteOffset":37224,"byteLength":288,"target":34962},{"buffer":0,"byteOffset":37512,"byteLength":72,"target":34963},{"buffer":0,"byteOffset":37584,"byteLength":1152,"target":34962},{"buffer":0,"byteOffset":38736,"byteLength":1152,"target":34962},{"buffer":0,"byteOffset":39888,"byteLength":288,"target":34963}],"accessors":[{"bufferView":0,"componentType":5126,"count":24,"type":"VEC3","min":[-4.6,0,-3.35],"max":[4.6,0.16,3.35]},{"bufferView":1,"componentType":5126,"count":24,"type":"VEC3"},{"bufferView":2,"componentType":5123,"count":36,"type":"SCALAR","min":[0],"max":[23]},{"bufferView":3,"componentType":5126,"count":120,"type":"VEC3","min":[-4.05,0.05,-3.2925],"max":[4.05,0.38999999999999996,2.75]},{"bufferView":4,"componentType":5126,"count":120,"type":"VEC3"},{"bufferView":5,"componentType":5123,"count":180,"type":"SCALAR","min":[0],"max":[119]},{"bufferView":6,"componentType":5126,"count":192,"type":"VEC3","min":[-4.4799999999999995,0.2,-3.13],"max":[4.4799999999999995,1.8250000000000002,3.13]},{"bufferView":7,"componentType":5126,"count":192,"type":"VEC3"},{"bufferView":8,"componentType":5123,"count":288,"type":"SCALAR","min":[0],"max":[191]},{"bufferView":9,"componentType":5126,"count":288,"type":"VEC3","min":[-4.659999999999999,1.01,-3.31],"max":[4.659999999999999,2.34,3.31]},{"bufferView":10,"componentType":5126,"count":288,"type":"VEC3"},{"bufferView":11,"componentType":5123,"count":432,"type":"SCALAR","min":[0],"max":[287]},{"bufferView":12,"componentType":5126,"count":216,"type":"VEC3","min":[-4.369999999999999,1.17,-3.13],"max":[4.369999999999999,2.4999999999999996,3.13]},{"bufferView":13,"componentType":5126,"count":216,"type":"VEC3"},{"bufferView":14,"componentType":5123,"count":324,"type":"SCALAR","min":[0],"max":[215]},{"bufferView":15,"componentType":5126,"count":528,"type":"VEC3","min":[-4.5112,0.62,-3.06],"max":[4.5112,2.63,3.06]},{"bufferView":16,"componentType":5126,"count":528,"type":"VEC3"},{"bufferView":17,"componentType":5123,"count":792,"type":"SCALAR","min":[0],"max":[527]},{"bufferView":18,"componentType":5126,"count":24,"type":"VEC3","min":[-0.525,1.21,-2.22],"max":[0.525,1.4900000000000002,-2.14]},{"bufferView":19,"componentType":5126,"count":24,"type":"VEC3"},{"bufferView":20,"componentType":5123,"count":36,"type":"SCALAR","min":[0],"max":[23]},{"bufferView":21,"componentType":5126,"count":96,"type":"VEC3","min":[-3.4899999999999998,0.77,-2.92],"max":[3.4899999999999998,1.15,-2.76]},{"bufferView":22,"componentType":5126,"count":96,"type":"VEC3"},{"bufferView":23,"componentType":5123,"count":144,"type":"SCALAR","min":[0],"max":[95]}]}