{"asset":{"version":"2.0","generator":"EarthGuardian refined Shanghai landmark voxels"},"scene":0,"scenes":[{"nodes":[0]}],"nodes":[{"mesh":0}],"meshes":[{"primitives":[{"attributes":{"POSITION":0,"NORMAL":1},"indices":2,"material":9},{"attributes":{"POSITION":3,"NORMAL":4},"indices":5,"material":11},{"attributes":{"POSITION":6,"NORMAL":7},"indices":8,"material":14},{"attributes":{"POSITION":9,"NORMAL":10},"indices":11,"material":15},{"attributes":{"POSITION":12,"NORMAL":13},"indices":14,"material":13},{"attributes":{"POSITION":15,"NORMAL":16},"indices":17,"material":16}]}],"materials":[{"name":"water","pbrMetallicRoughness":{"baseColorFactor":[0.03,0.48,0.58,0.84],"metallicFactor":0.1,"roughnessFactor":0.22},"alphaMode":"BLEND","doubleSided":true},{"name":"waterFoam","pbrMetallicRoughness":{"baseColorFactor":[0.45,0.86,0.88,0.64],"metallicFactor":0.1,"roughnessFactor":0.22},"alphaMode":"BLEND","doubleSided":true},{"name":"land","pbrMetallicRoughness":{"baseColorFactor":[0.53,0.58,0.48,1],"metallicFactor":0,"roughnessFactor":0.82}},{"name":"grass","pbrMetallicRoughness":{"baseColorFactor":[0.14,0.47,0.2,1],"metallicFactor":0,"roughnessFactor":0.82}},{"name":"grassLight","pbrMetallicRoughness":{"baseColorFactor":[0.24,0.62,0.27,1],"metallicFactor":0,"roughnessFactor":0.82}},{"name":"road","pbrMetallicRoughness":{"baseColorFactor":[0.28,0.3,0.31,1],"metallicFactor":0,"roughnessFactor":0.82}},{"name":"plaza","pbrMetallicRoughness":{"baseColorFactor":[0.76,0.72,0.62,1],"metallicFactor":0,"roughnessFactor":0.82}},{"name":"quay","pbrMetallicRoughness":{"baseColorFactor":[0.62,0.58,0.48,1],"metallicFactor":0,"roughnessFactor":0.82}},{"name":"earth","pbrMetallicRoughness":{"baseColorFactor":[0.34,0.22,0.13,1],"metallicFactor":0,"roughnessFactor":0.82}},{"name":"concrete","pbrMetallicRoughness":{"baseColorFactor":[0.62,0.64,0.62,1],"metallicFactor":0,"roughnessFactor":0.82}},{"name":"darkConcrete","pbrMetallicRoughness":{"baseColorFactor":[0.32,0.34,0.34,1],"metallicFactor":0,"roughnessFactor":0.82}},{"name":"glassBlue","pbrMetallicRoughness":{"baseColorFactor":[0.28,0.63,0.78,0.88],"metallicFactor":0.1,"roughnessFactor":0.22},"alphaMode":"BLEND","doubleSided":true},{"name":"glassCyan","pbrMetallicRoughness":{"baseColorFactor":[0.45,0.83,0.9,0.78],"metallicFactor":0.1,"roughnessFactor":0.22},"alphaMode":"BLEND","doubleSided":true},{"name":"glassDark","pbrMetallicRoughness":{"baseColorFactor":[0.08,0.22,0.31,0.94],"metallicFactor":0.1,"roughnessFactor":0.22},"alphaMode":"BLEND","doubleSided":true},{"name":"glassSilver","pbrMetallicRoughness":{"baseColorFactor":[0.66,0.78,0.82,0.86],"metallicFactor":0.1,"roughnessFactor":0.22},"alphaMode":"BLEND","doubleSided":true},{"name":"steel","pbrMetallicRoughness":{"baseColorFactor":[0.66,0.69,0.68,1],"metallicFactor":0.1,"roughnessFactor":0.82}},{"name":"steelDark","pbrMetallicRoughness":{"baseColorFactor":[0.32,0.36,0.38,1],"metallicFactor":0.1,"roughnessFactor":0.82}},{"name":"pearlRed","pbrMetallicRoughness":{"baseColorFactor":[0.8,0.1,0.16,1],"metallicFactor":0,"roughnessFactor":0.82}},{"name":"pearlPink","pbrMetallicRoughness":{"baseColorFactor":[0.95,0.36,0.46,1],"metallicFactor":0,"roughnessFactor":0.82}},{"name":"pearlWhite","pbrMetallicRoughness":{"baseColorFactor":[0.94,0.88,0.76,1],"metallicFactor":0,"roughnessFactor":0.82}},{"name":"gold","pbrMetallicRoughness":{"baseColorFactor":[0.96,0.7,0.18,1],"metallicFactor":0,"roughnessFactor":0.82}},{"name":"bundStone","pbrMetallicRoughness":{"baseColorFactor":[0.78,0.66,0.48,1],"metallicFactor":0,"roughnessFactor":0.82}},{"name":"bundDark","pbrMetallicRoughness":{"baseColorFactor":[0.46,0.35,0.23,1],"metallicFactor":0,"roughnessFactor":0.82}},{"name":"roofGreen","pbrMetallicRoughness":{"baseColorFactor":[0.08,0.38,0.36,1],"metallicFactor":0,"roughnessFactor":0.82}},{"name":"neon","pbrMetallicRoughness":{"baseColorFactor":[0.18,0.95,0.9,1],"metallicFactor":0,"roughnessFactor":0.82}},{"name":"warning","pbrMetallicRoughness":{"baseColorFactor":[1,0.45,0.04,1],"metallicFactor":0,"roughnessFactor":0.82}},{"name":"red","pbrMetallicRoughness":{"baseColorFactor":[0.82,0.05,0.04,1],"metallicFactor":0,"roughnessFactor":0.82}},{"name":"white","pbrMetallicRoughness":{"baseColorFactor":[0.96,0.96,0.9,1],"metallicFactor":0,"roughnessFactor":0.82}},{"name":"black","pbrMetallicRoughness":{"baseColorFactor":[0.04,0.04,0.04,1],"metallicFactor":0,"roughnessFactor":0.82}},{"name":"treeTrunk","pbrMetallicRoughness":{"baseColorFactor":[0.35,0.2,0.1,1],"metallicFactor":0,"roughnessFactor":0.82}},{"name":"tree","pbrMetallicRoughness":{"baseColorFactor":[0.1,0.42,0.16,1],"metallicFactor":0,"roughnessFactor":0.82}},{"name":"rust","pbrMetallicRoughness":{"baseColorFactor":[0.55,0.22,0.1,1],"metallicFactor":0,"roughnessFactor":0.82}},{"name":"crate","pbrMetallicRoughness":{"baseColorFactor":[0.58,0.34,0.14,1],"metallicFactor":0,"roughnessFactor":0.82}},{"name":"tan","pbrMetallicRoughness":{"baseColorFactor":[0.75,0.62,0.44,1],"metallicFactor":0,"roughnessFactor":0.82}}],"buffers":[{"uri":"data:application/octet-stream;base64,","byteLength":75816}],"bufferViews":[{"buffer":0,"byteOffset":0,"byteLength":288,"target":34962},{"buffer":0,"byteOffset":288,"byteLength":288,"target":34962},{"buffer":0,"byteOffset":576,"byteLength":72,"target":34963},{"buffer":0,"byteOffset":648,"byteLength":4896,"target":34962},{"buffer":0,"byteOffset":5544,"byteLength":4896,"target":34962},{"buffer":0,"byteOffset":10440,"byteLength":1224,"target":34963},{"buffer":0,"byteOffset":11664,"byteLength":19584,"target":34962},{"buffer":0,"byteOffset":31248,"byteLength":19584,"target":34962},{"buffer":0,"byteOffset":50832,"byteLength":4896,"target":34963},{"buffer":0,"byteOffset":55728,"byteLength":3744,"target":34962},{"buffer":0,"byteOffset":59472,"byteLength":3744,"target":34962},{"buffer":0,"byteOffset":63216,"byteLength":936,"target":34963},{"buffer":0,"byteOffset":64152,"byteLength":4896,"target":34962},{"buffer":0,"byteOffset":69048,"byteLength":4896,"target":34962},{"buffer":0,"byteOffset":73944,"byteLength":1224,"target":34963},{"buffer":0,"byteOffset":75168,"byteLength":288,"target":34962},{"buffer":0,"byteOffset":75456,"byteLength":288,"target":34962},{"buffer":0,"byteOffset":75744,"byteLength":72,"target":34963}],"accessors":[{"bufferView":0,"componentType":5126,"count":24,"type":"VEC3","min":[-1.35,0,-1.25],"max":[1.35,0.16,1.25]},{"bufferView":1,"componentType":5126,"count":24,"type":"VEC3"},{"bufferView":2,"componentType":5123,"count":36,"type":"SCALAR","min":[0],"max":[23]},{"bufferView":3,"componentType":5126,"count":408,"type":"VEC3","min":[-1.051759558093565,0.25,-0.7442222340668657],"max":[1.1479500035660046,7.79,0.8099999999999999]},{"bufferView":4,"componentType":5126,"count":408,"type":"VEC3"},{"bufferView":5,"componentType":5123,"count":612,"type":"SCALAR","min":[0],"max":[407]},{"bufferView":6,"componentType":5126,"count":1632,"type":"VEC3","min":[-0.9030741254785482,0.35000000000000003,-0.7537222340668657],"max":[0.9695500035660047,8.100000000000001,0.8182999999999999]},{"bufferView":7,"componentType":5126,"count":1632,"type":"VEC3"},{"bufferView":8,"componentType":5123,"count":2448,"type":"SCALAR","min":[0],"max":[1631]},{"bufferView":9,"componentType":5126,"count":312,"type":"VEC3","min":[-1.081759558093565,0.4425,-0.7672952037099889],"max":[1.1616698736523874,8.49,0.84]},{"bufferView":10,"componentType":5126,"count":312,"type":"VEC3"},{"bufferView":11,"componentType":5123,"count":468,"type":"SCALAR","min":[0],"max":[311]},{"bufferView":12,"componentType":5126,"count":408,"type":"VEC3","min":[-1.0598741254785482,0.4800000000000001,-0.7438103772095145],"max":[1.1337234314107667,8.020000000000001,0.800105543831077]},{"bufferView":13,"componentType":5126,"count":408,"type":"VEC3"},{"bufferView":14,"componentType":5123,"count":612,"type":"SCALAR","min":[0],"max":[407]},{"bufferView":15,"componentType":5126,"count":24,"type":"VEC3","min":[-0.045,8.36,-0.065],"max":[0.085,9.2,0.065]},{"bufferView":16,"componentType":5126,"count":24,"type":"VEC3"},{"bufferView":17,"componentType":5123,"count":36,"type":"SCALAR","min":[0],"max":[23]}]}