{"asset":{"version":"2.0","generator":"EarthGuardian refined Shanghai landmark voxels"},"scene":0,"scenes":[{"nodes":[0]}],"nodes":[{"mesh":0}],"meshes":[{"primitives":[{"attributes":{"POSITION":0,"NORMAL":1},"indices":2,"material":9},{"attributes":{"POSITION":3,"NORMAL":4},"indices":5,"material":11},{"attributes":{"POSITION":6,"NORMAL":7},"indices":8,"material":13},{"attributes":{"POSITION":9,"NORMAL":10},"indices":11,"material":14},{"attributes":{"POSITION":12,"NORMAL":13},"indices":14,"material":28},{"attributes":{"POSITION":15,"NORMAL":16},"indices":17,"material":15}]}],"materials":[{"name":"water","pbrMetallicRoughness":{"baseColorFactor":[0.03,0.48,0.58,0.84],"metallicFactor":0.1,"roughnessFactor":0.22},"alphaMode":"BLEND","doubleSided":true},{"name":"waterFoam","pbrMetallicRoughness":{"baseColorFactor":[0.45,0.86,0.88,0.64],"metallicFactor":0.1,"roughnessFactor":0.22},"alphaMode":"BLEND","doubleSided":true},{"name":"land","pbrMetallicRoughness":{"baseColorFactor":[0.53,0.58,0.48,1],"metallicFactor":0,"roughnessFactor":0.82}},{"name":"grass","pbrMetallicRoughness":{"baseColorFactor":[0.14,0.47,0.2,1],"metallicFactor":0,"roughnessFactor":0.82}},{"name":"grassLight","pbrMetallicRoughness":{"baseColorFactor":[0.24,0.62,0.27,1],"metallicFactor":0,"roughnessFactor":0.82}},{"name":"road","pbrMetallicRoughness":{"baseColorFactor":[0.28,0.3,0.31,1],"metallicFactor":0,"roughnessFactor":0.82}},{"name":"plaza","pbrMetallicRoughness":{"baseColorFactor":[0.76,0.72,0.62,1],"metallicFactor":0,"roughnessFactor":0.82}},{"name":"quay","pbrMetallicRoughness":{"baseColorFactor":[0.62,0.58,0.48,1],"metallicFactor":0,"roughnessFactor":0.82}},{"name":"earth","pbrMetallicRoughness":{"baseColorFactor":[0.34,0.22,0.13,1],"metallicFactor":0,"roughnessFactor":0.82}},{"name":"concrete","pbrMetallicRoughness":{"baseColorFactor":[0.62,0.64,0.62,1],"metallicFactor":0,"roughnessFactor":0.82}},{"name":"darkConcrete","pbrMetallicRoughness":{"baseColorFactor":[0.32,0.34,0.34,1],"metallicFactor":0,"roughnessFactor":0.82}},{"name":"glassBlue","pbrMetallicRoughness":{"baseColorFactor":[0.28,0.63,0.78,0.88],"metallicFactor":0.1,"roughnessFactor":0.22},"alphaMode":"BLEND","doubleSided":true},{"name":"glassCyan","pbrMetallicRoughness":{"baseColorFactor":[0.45,0.83,0.9,0.78],"metallicFactor":0.1,"roughnessFactor":0.22},"alphaMode":"BLEND","doubleSided":true},{"name":"glassDark","pbrMetallicRoughness":{"baseColorFactor":[0.08,0.22,0.31,0.94],"metallicFactor":0.1,"roughnessFactor":0.22},"alphaMode":"BLEND","doubleSided":true},{"name":"glassSilver","pbrMetallicRoughness":{"baseColorFactor":[0.66,0.78,0.82,0.86],"metallicFactor":0.1,"roughnessFactor":0.22},"alphaMode":"BLEND","doubleSided":true},{"name":"steel","pbrMetallicRoughness":{"baseColorFactor":[0.66,0.69,0.68,1],"metallicFactor":0.1,"roughnessFactor":0.82}},{"name":"steelDark","pbrMetallicRoughness":{"baseColorFactor":[0.32,0.36,0.38,1],"metallicFactor":0.1,"roughnessFactor":0.82}},{"name":"pearlRed","pbrMetallicRoughness":{"baseColorFactor":[0.8,0.1,0.16,1],"metallicFactor":0,"roughnessFactor":0.82}},{"name":"pearlPink","pbrMetallicRoughness":{"baseColorFactor":[0.95,0.36,0.46,1],"metallicFactor":0,"roughnessFactor":0.82}},{"name":"pearlWhite","pbrMetallicRoughness":{"baseColorFactor":[0.94,0.88,0.76,1],"metallicFactor":0,"roughnessFactor":0.82}},{"name":"gold","pbrMetallicRoughness":{"baseColorFactor":[0.96,0.7,0.18,1],"metallicFactor":0,"roughnessFactor":0.82}},{"name":"bundStone","pbrMetallicRoughness":{"baseColorFactor":[0.78,0.66,0.48,1],"metallicFactor":0,"roughnessFactor":0.82}},{"name":"bundDark","pbrMetallicRoughness":{"baseColorFactor":[0.46,0.35,0.23,1],"metallicFactor":0,"roughnessFactor":0.82}},{"name":"roofGreen","pbrMetallicRoughness":{"baseColorFactor":[0.08,0.38,0.36,1],"metallicFactor":0,"roughnessFactor":0.82}},{"name":"neon","pbrMetallicRoughness":{"baseColorFactor":[0.18,0.95,0.9,1],"metallicFactor":0,"roughnessFactor":0.82}},{"name":"warning","pbrMetallicRoughness":{"baseColorFactor":[1,0.45,0.04,1],"metallicFactor":0,"roughnessFactor":0.82}},{"name":"red","pbrMetallicRoughness":{"baseColorFactor":[0.82,0.05,0.04,1],"metallicFactor":0,"roughnessFactor":0.82}},{"name":"white","pbrMetallicRoughness":{"baseColorFactor":[0.96,0.96,0.9,1],"metallicFactor":0,"roughnessFactor":0.82}},{"name":"black","pbrMetallicRoughness":{"baseColorFactor":[0.04,0.04,0.04,1],"metallicFactor":0,"roughnessFactor":0.82}},{"name":"treeTrunk","pbrMetallicRoughness":{"baseColorFactor":[0.35,0.2,0.1,1],"metallicFactor":0,"roughnessFactor":0.82}},{"name":"tree","pbrMetallicRoughness":{"baseColorFactor":[0.1,0.42,0.16,1],"metallicFactor":0,"roughnessFactor":0.82}},{"name":"rust","pbrMetallicRoughness":{"baseColorFactor":[0.55,0.22,0.1,1],"metallicFactor":0,"roughnessFactor":0.82}},{"name":"crate","pbrMetallicRoughness":{"baseColorFactor":[0.58,0.34,0.14,1],"metallicFactor":0,"roughnessFactor":0.82}},{"name":"tan","pbrMetallicRoughness":{"baseColorFactor":[0.75,0.62,0.44,1],"metallicFactor":0,"roughnessFactor":0.82}}],"buffers":[{"uri":"data:application/octet-stream;base64,","byteLength":58320}],"bufferViews":[{"buffer":0,"byteOffset":0,"byteLength":288,"target":34962},{"buffer":0,"byteOffset":288,"byteLength":288,"target":34962},{"buffer":0,"byteOffset":576,"byteLength":72,"target":34963},{"buffer":0,"byteOffset":648,"byteLength":15264,"target":34962},{"buffer":0,"byteOffset":15912,"byteLength":15264,"target":34962},{"buffer":0,"byteOffset":31176,"byteLength":3816,"target":34963},{"buffer":0,"byteOffset":34992,"byteLength":5760,"target":34962},{"buffer":0,"byteOffset":40752,"byteLength":5760,"target":34962},{"buffer":0,"byteOffset":46512,"byteLength":1440,"target":34963},{"buffer":0,"byteOffset":47952,"byteLength":3744,"target":34962},{"buffer":0,"byteOffset":51696,"byteLength":3744,"target":34962},{"buffer":0,"byteOffset":55440,"byteLength":936,"target":34963},{"buffer":0,"byteOffset":56376,"byteLength":288,"target":34962},{"buffer":0,"byteOffset":56664,"byteLength":288,"target":34962},{"buffer":0,"byteOffset":56952,"byteLength":72,"target":34963},{"buffer":0,"byteOffset":57024,"byteLength":576,"target":34962},{"buffer":0,"byteOffset":57600,"byteLength":576,"target":34962},{"buffer":0,"byteOffset":58176,"byteLength":144,"target":34963}],"accessors":[{"bufferView":0,"componentType":5126,"count":24,"type":"VEC3","min":[-1.25,0,-1.05],"max":[1.25,0.16,1.05]},{"bufferView":1,"componentType":5126,"count":24,"type":"VEC3"},{"bufferView":2,"componentType":5123,"count":36,"type":"SCALAR","min":[0],"max":[23]},{"bufferView":3,"componentType":5126,"count":1272,"type":"VEC3","min":[-0.8899999999999999,0.27,-0.58],"max":[0.8899999999999999,6.6,0.58]},{"bufferView":4,"componentType":5126,"count":1272,"type":"VEC3"},{"bufferView":5,"componentType":5123,"count":1908,"type":"SCALAR","min":[0],"max":[1271]},{"bufferView":6,"componentType":5126,"count":480,"type":"VEC3","min":[-0.29,0.27,-0.51],"max":[0.29,4.82,0.51]},{"bufferView":7,"componentType":5126,"count":480,"type":"VEC3"},{"bufferView":8,"componentType":5123,"count":720,"type":"SCALAR","min":[0],"max":[479]},{"bufferView":9,"componentType":5126,"count":312,"type":"VEC3","min":[-0.675,0.43499999999999994,-0.6224999999999999],"max":[0.675,5.985,-0.38549999999999995]},{"bufferView":10,"componentType":5126,"count":312,"type":"VEC3"},{"bufferView":11,"componentType":5123,"count":468,"type":"SCALAR","min":[0],"max":[311]},{"bufferView":12,"componentType":5126,"count":24,"type":"VEC3","min":[-0.43,5.819999999999999,-0.6],"max":[0.43,6.54,0.6]},{"bufferView":13,"componentType":5126,"count":24,"type":"VEC3"},{"bufferView":14,"componentType":5123,"count":36,"type":"SCALAR","min":[0],"max":[23]},{"bufferView":15,"componentType":5126,"count":48,"type":"VEC3","min":[-0.64,6.54,-0.66],"max":[0.64,6.659999999999999,0.66]},{"bufferView":16,"componentType":5126,"count":48,"type":"VEC3"},{"bufferView":17,"componentType":5123,"count":72,"type":"SCALAR","min":[0],"max":[47]}]}