{"asset":{"version":"2.0","generator":"EarthGuardian Jinan street block voxels"},"scene":0,"scenes":[{"nodes":[0]}],"nodes":[{"mesh":0}],"meshes":[{"primitives":[{"attributes":{"POSITION":0,"NORMAL":1},"indices":2,"material":8},{"attributes":{"POSITION":3,"NORMAL":4},"indices":5,"material":14},{"attributes":{"POSITION":6,"NORMAL":7},"indices":8,"material":12},{"attributes":{"POSITION":9,"NORMAL":10},"indices":11,"material":13},{"attributes":{"POSITION":12,"NORMAL":13},"indices":14,"material":17},{"attributes":{"POSITION":15,"NORMAL":16},"indices":17,"material":21},{"attributes":{"POSITION":18,"NORMAL":19},"indices":20,"material":22},{"attributes":{"POSITION":21,"NORMAL":22},"indices":23,"material":9},{"attributes":{"POSITION":24,"NORMAL":25},"indices":26,"material":31},{"attributes":{"POSITION":27,"NORMAL":28},"indices":29,"material":10},{"attributes":{"POSITION":30,"NORMAL":31},"indices":32,"material":26}]}],"materials":[{"name":"water","pbrMetallicRoughness":{"baseColorFactor":[0.08,0.52,0.62,0.86],"metallicFactor":0.08,"roughnessFactor":0.24},"alphaMode":"BLEND","doubleSided":true},{"name":"waterLight","pbrMetallicRoughness":{"baseColorFactor":[0.35,0.78,0.82,0.72],"metallicFactor":0.08,"roughnessFactor":0.24},"alphaMode":"BLEND","doubleSided":true},{"name":"pondDeep","pbrMetallicRoughness":{"baseColorFactor":[0.05,0.42,0.55,0.92],"metallicFactor":0.08,"roughnessFactor":0.24},"alphaMode":"BLEND","doubleSided":true},{"name":"earthDark","pbrMetallicRoughness":{"baseColorFactor":[0.28,0.16,0.08,1],"metallicFactor":0,"roughnessFactor":0.82}},{"name":"earthMid","pbrMetallicRoughness":{"baseColorFactor":[0.42,0.28,0.14,1],"metallicFactor":0,"roughnessFactor":0.82}},{"name":"earthLight","pbrMetallicRoughness":{"baseColorFactor":[0.58,0.42,0.24,1],"metallicFactor":0,"roughnessFactor":0.82}},{"name":"stone","pbrMetallicRoughness":{"baseColorFactor":[0.62,0.6,0.54,1],"metallicFactor":0,"roughnessFactor":0.82}},{"name":"stoneDark","pbrMetallicRoughness":{"baseColorFactor":[0.38,0.36,0.34,1],"metallicFactor":0,"roughnessFactor":0.82}},{"name":"stonePath","pbrMetallicRoughness":{"baseColorFactor":[0.72,0.68,0.58,1],"metallicFactor":0,"roughnessFactor":0.82}},{"name":"grass","pbrMetallicRoughness":{"baseColorFactor":[0.22,0.52,0.24,1],"metallicFactor":0,"roughnessFactor":0.82}},{"name":"grassLight","pbrMetallicRoughness":{"baseColorFactor":[0.32,0.64,0.28,1],"metallicFactor":0,"roughnessFactor":0.82}},{"name":"grassDark","pbrMetallicRoughness":{"baseColorFactor":[0.14,0.4,0.16,1],"metallicFactor":0,"roughnessFactor":0.82}},{"name":"roofGrey","pbrMetallicRoughness":{"baseColorFactor":[0.48,0.5,0.52,1],"metallicFactor":0,"roughnessFactor":0.82}},{"name":"roofDark","pbrMetallicRoughness":{"baseColorFactor":[0.32,0.34,0.36,1],"metallicFactor":0,"roughnessFactor":0.82}},{"name":"wallWhite","pbrMetallicRoughness":{"baseColorFactor":[0.9,0.88,0.82,1],"metallicFactor":0,"roughnessFactor":0.82}},{"name":"wallGrey","pbrMetallicRoughness":{"baseColorFactor":[0.78,0.76,0.7,1],"metallicFactor":0,"roughnessFactor":0.82}},{"name":"woodDark","pbrMetallicRoughness":{"baseColorFactor":[0.28,0.16,0.08,1],"metallicFactor":0,"roughnessFactor":0.82}},{"name":"woodBrown","pbrMetallicRoughness":{"baseColorFactor":[0.42,0.24,0.12,1],"metallicFactor":0,"roughnessFactor":0.82}},{"name":"roofGold","pbrMetallicRoughness":{"baseColorFactor":[0.94,0.68,0.12,1],"metallicFactor":0,"roughnessFactor":0.82}},{"name":"roofGoldDark","pbrMetallicRoughness":{"baseColorFactor":[0.72,0.42,0.06,1],"metallicFactor":0,"roughnessFactor":0.82}},{"name":"vermilion","pbrMetallicRoughness":{"baseColorFactor":[0.82,0.12,0.08,1],"metallicFactor":0,"roughnessFactor":0.82}},{"name":"lanternRed","pbrMetallicRoughness":{"baseColorFactor":[0.9,0.06,0.04,1],"metallicFactor":0,"roughnessFactor":0.82}},{"name":"lanternGlow","pbrMetallicRoughness":{"baseColorFactor":[1,0.72,0.18,1],"metallicFactor":0,"roughnessFactor":0.82}},{"name":"tigerOrange","pbrMetallicRoughness":{"baseColorFactor":[0.92,0.48,0.08,1],"metallicFactor":0,"roughnessFactor":0.82}},{"name":"tigerWhite","pbrMetallicRoughness":{"baseColorFactor":[0.94,0.9,0.82,1],"metallicFactor":0,"roughnessFactor":0.82}},{"name":"tigerBlack","pbrMetallicRoughness":{"baseColorFactor":[0.12,0.1,0.08,1],"metallicFactor":0,"roughnessFactor":0.82}},{"name":"leaf","pbrMetallicRoughness":{"baseColorFactor":[0.18,0.58,0.2,1],"metallicFactor":0,"roughnessFactor":0.82}},{"name":"willow","pbrMetallicRoughness":{"baseColorFactor":[0.42,0.72,0.28,1],"metallicFactor":0,"roughnessFactor":0.82}},{"name":"willowLight","pbrMetallicRoughness":{"baseColorFactor":[0.58,0.82,0.38,1],"metallicFactor":0,"roughnessFactor":0.82}},{"name":"pine","pbrMetallicRoughness":{"baseColorFactor":[0.1,0.42,0.16,1],"metallicFactor":0,"roughnessFactor":0.82}},{"name":"pineLight","pbrMetallicRoughness":{"baseColorFactor":[0.18,0.55,0.22,1],"metallicFactor":0,"roughnessFactor":0.82}},{"name":"trunk","pbrMetallicRoughness":{"baseColorFactor":[0.35,0.2,0.1,1],"metallicFactor":0,"roughnessFactor":0.82}},{"name":"lotus","pbrMetallicRoughness":{"baseColorFactor":[0.22,0.62,0.28,1],"metallicFactor":0,"roughnessFactor":0.82}},{"name":"lotusPink","pbrMetallicRoughness":{"baseColorFactor":[0.95,0.52,0.72,1],"metallicFactor":0,"roughnessFactor":0.82}},{"name":"boatWood","pbrMetallicRoughness":{"baseColorFactor":[0.52,0.32,0.14,1],"metallicFactor":0,"roughnessFactor":0.82}},{"name":"boatCover","pbrMetallicRoughness":{"baseColorFactor":[0.38,0.22,0.1,1],"metallicFactor":0,"roughnessFactor":0.82}},{"name":"tabletBlue","pbrMetallicRoughness":{"baseColorFactor":[0.12,0.32,0.58,1],"metallicFactor":0,"roughnessFactor":0.82}},{"name":"black","pbrMetallicRoughness":{"baseColorFactor":[0.06,0.06,0.06,1],"metallicFactor":0,"roughnessFactor":0.82}},{"name":"white","pbrMetallicRoughness":{"baseColorFactor":[0.96,0.94,0.88,1],"metallicFactor":0,"roughnessFactor":0.82}}],"buffers":[{"uri":"data:application/octet-stream;base64,","byteLength":42120}],"bufferViews":[{"buffer":0,"byteOffset":0,"byteLength":288,"target":34962},{"buffer":0,"byteOffset":288,"byteLength":288,"target":34962},{"buffer":0,"byteOffset":576,"byteLength":72,"target":34963},{"buffer":0,"byteOffset":648,"byteLength":2016,"target":34962},{"buffer":0,"byteOffset":2664,"byteLength":2016,"target":34962},{"buffer":0,"byteOffset":4680,"byteLength":504,"target":34963},{"buffer":0,"byteOffset":5184,"byteLength":2016,"target":34962},{"buffer":0,"byteOffset":7200,"byteLength":2016,"target":34962},{"buffer":0,"byteOffset":9216,"byteLength":504,"target":34963},{"buffer":0,"byteOffset":9720,"byteLength":2016,"target":34962},{"buffer":0,"byteOffset":11736,"byteLength":2016,"target":34962},{"buffer":0,"byteOffset":13752,"byteLength":504,"target":34963},{"buffer":0,"byteOffset":14256,"byteLength":2016,"target":34962},{"buffer":0,"byteOffset":16272,"byteLength":2016,"target":34962},{"buffer":0,"byteOffset":18288,"byteLength":504,"target":34963},{"buffer":0,"byteOffset":18792,"byteLength":2016,"target":34962},{"buffer":0,"byteOffset":20808,"byteLength":2016,"target":34962},{"buffer":0,"byteOffset":22824,"byteLength":504,"target":34963},{"buffer":0,"byteOffset":23328,"byteLength":2016,"target":34962},{"buffer":0,"byteOffset":25344,"byteLength":2016,"target":34962},{"buffer":0,"byteOffset":27360,"byteLength":504,"target":34963},{"buffer":0,"byteOffset":27864,"byteLength":288,"target":34962},{"buffer":0,"byteOffset":28152,"byteLength":288,"target":34962},{"buffer":0,"byteOffset":28440,"byteLength":72,"target":34963},{"buffer":0,"byteOffset":28512,"byteLength":288,"target":34962},{"buffer":0,"byteOffset":28800,"byteLength":288,"target":34962},{"buffer":0,"byteOffset":29088,"byteLength":72,"target":34963},{"buffer":0,"byteOffset":29160,"byteLength":2880,"target":34962},{"buffer":0,"byteOffset":32040,"byteLength":2880,"target":34962},{"buffer":0,"byteOffset":34920,"byteLength":720,"target":34963},{"buffer":0,"byteOffset":35640,"byteLength":2880,"target":34962},{"buffer":0,"byteOffset":38520,"byteLength":2880,"target":34962},{"buffer":0,"byteOffset":41400,"byteLength":720,"target":34963}],"accessors":[{"bufferView":0,"componentType":5126,"count":24,"type":"VEC3","min":[-4.5,0,-1.5],"max":[4.5,0.08,2.5]},{"bufferView":1,"componentType":5126,"count":24,"type":"VEC3"},{"bufferView":2,"componentType":5123,"count":36,"type":"SCALAR","min":[0],"max":[23]},{"bufferView":3,"componentType":5126,"count":168,"type":"VEC3","min":[-4.4,0.08,-1.75],"max":[3.95,1.9,1.85]},{"bufferView":4,"componentType":5126,"count":168,"type":"VEC3"},{"bufferView":5,"componentType":5123,"count":252,"type":"SCALAR","min":[0],"max":[167]},{"bufferView":6,"componentType":5126,"count":168,"type":"VEC3","min":[-4.5600000000000005,1.2,-1.83],"max":[4.11,2.1799999999999997,1.9300000000000002]},{"bufferView":7,"componentType":5126,"count":168,"type":"VEC3"},{"bufferView":8,"componentType":5123,"count":252,"type":"SCALAR","min":[0],"max":[167]},{"bufferView":9,"componentType":5126,"count":168,"type":"VEC3","min":[-4.48,1.48,-1.75],"max":[4.03,2.32,1.85]},{"bufferView":10,"componentType":5126,"count":168,"type":"VEC3"},{"bufferView":11,"componentType":5123,"count":252,"type":"SCALAR","min":[0],"max":[167]},{"bufferView":12,"componentType":5126,"count":168,"type":"VEC3","min":[-3.7800000000000002,0.08,-0.33],"max":[3.3800000000000003,0.72,1.9300000000000002]},{"bufferView":13,"componentType":5126,"count":168,"type":"VEC3"},{"bufferView":14,"componentType":5123,"count":252,"type":"SCALAR","min":[0],"max":[167]},{"bufferView":15,"componentType":5126,"count":168,"type":"VEC3","min":[-4.32,1.0999999999999999,-0.09],"max":[2.6420000000000003,1.912,2.1220000000000003]},{"bufferView":16,"componentType":5126,"count":168,"type":"VEC3"},{"bufferView":17,"componentType":5123,"count":252,"type":"SCALAR","min":[0],"max":[167]},{"bufferView":18,"componentType":5126,"count":168,"type":"VEC3","min":[-2.96,1.0999999999999999,-0.09],"max":[3.902,1.912,2.1220000000000003]},{"bufferView":19,"componentType":5126,"count":168,"type":"VEC3"},{"bufferView":20,"componentType":5123,"count":252,"type":"SCALAR","min":[0],"max":[167]},{"bufferView":21,"componentType":5126,"count":24,"type":"VEC3","min":[-1.2,0.08,2.6],"max":[1.2,0.08,4.2]},{"bufferView":22,"componentType":5126,"count":24,"type":"VEC3"},{"bufferView":23,"componentType":5123,"count":36,"type":"SCALAR","min":[0],"max":[23]},{"bufferView":24,"componentType":5126,"count":24,"type":"VEC3","min":[-0.09,0.08,3.31],"max":[0.09,1.1800000000000002,3.4899999999999998]},{"bufferView":25,"componentType":5126,"count":24,"type":"VEC3"},{"bufferView":26,"componentType":5123,"count":36,"type":"SCALAR","min":[0],"max":[23]},{"bufferView":27,"componentType":5126,"count":240,"type":"VEC3","min":[-0.74,1,2.6962181779415864],"max":[0.7746725758374612,1.476,4.279781822058414]},{"bufferView":28,"componentType":5126,"count":240,"type":"VEC3"},{"bufferView":29,"componentType":5123,"count":360,"type":"SCALAR","min":[0],"max":[239]},{"bufferView":30,"componentType":5126,"count":240,"type":"VEC3","min":[-0.817908604013832,1,2.54],"max":[0.9939086040138321,1.476,4.271754615162455]},{"bufferView":31,"componentType":5126,"count":240,"type":"VEC3"},{"bufferView":32,"componentType":5123,"count":360,"type":"SCALAR","min":[0],"max":[239]}]}