{"asset":{"version":"2.0","generator":"EarthGuardian refined Shanghai landmark voxels"},"scene":0,"scenes":[{"nodes":[0]}],"nodes":[{"mesh":0}],"meshes":[{"primitives":[{"attributes":{"POSITION":0,"NORMAL":1},"indices":2,"material":6},{"attributes":{"POSITION":3,"NORMAL":4},"indices":5,"material":4},{"attributes":{"POSITION":6,"NORMAL":7},"indices":8,"material":15},{"attributes":{"POSITION":9,"NORMAL":10},"indices":11,"material":16},{"attributes":{"POSITION":12,"NORMAL":13},"indices":14,"material":19},{"attributes":{"POSITION":15,"NORMAL":16},"indices":17,"material":17},{"attributes":{"POSITION":18,"NORMAL":19},"indices":20,"material":18},{"attributes":{"POSITION":21,"NORMAL":22},"indices":23,"material":27},{"attributes":{"POSITION":24,"NORMAL":25},"indices":26,"material":26}]}],"materials":[{"name":"water","pbrMetallicRoughness":{"baseColorFactor":[0.03,0.48,0.58,0.84],"metallicFactor":0.1,"roughnessFactor":0.22},"alphaMode":"BLEND","doubleSided":true},{"name":"waterFoam","pbrMetallicRoughness":{"baseColorFactor":[0.45,0.86,0.88,0.64],"metallicFactor":0.1,"roughnessFactor":0.22},"alphaMode":"BLEND","doubleSided":true},{"name":"land","pbrMetallicRoughness":{"baseColorFactor":[0.53,0.58,0.48,1],"metallicFactor":0,"roughnessFactor":0.82}},{"name":"grass","pbrMetallicRoughness":{"baseColorFactor":[0.14,0.47,0.2,1],"metallicFactor":0,"roughnessFactor":0.82}},{"name":"grassLight","pbrMetallicRoughness":{"baseColorFactor":[0.24,0.62,0.27,1],"metallicFactor":0,"roughnessFactor":0.82}},{"name":"road","pbrMetallicRoughness":{"baseColorFactor":[0.28,0.3,0.31,1],"metallicFactor":0,"roughnessFactor":0.82}},{"name":"plaza","pbrMetallicRoughness":{"baseColorFactor":[0.76,0.72,0.62,1],"metallicFactor":0,"roughnessFactor":0.82}},{"name":"quay","pbrMetallicRoughness":{"baseColorFactor":[0.62,0.58,0.48,1],"metallicFactor":0,"roughnessFactor":0.82}},{"name":"earth","pbrMetallicRoughness":{"baseColorFactor":[0.34,0.22,0.13,1],"metallicFactor":0,"roughnessFactor":0.82}},{"name":"concrete","pbrMetallicRoughness":{"baseColorFactor":[0.62,0.64,0.62,1],"metallicFactor":0,"roughnessFactor":0.82}},{"name":"darkConcrete","pbrMetallicRoughness":{"baseColorFactor":[0.32,0.34,0.34,1],"metallicFactor":0,"roughnessFactor":0.82}},{"name":"glassBlue","pbrMetallicRoughness":{"baseColorFactor":[0.28,0.63,0.78,0.88],"metallicFactor":0.1,"roughnessFactor":0.22},"alphaMode":"BLEND","doubleSided":true},{"name":"glassCyan","pbrMetallicRoughness":{"baseColorFactor":[0.45,0.83,0.9,0.78],"metallicFactor":0.1,"roughnessFactor":0.22},"alphaMode":"BLEND","doubleSided":true},{"name":"glassDark","pbrMetallicRoughness":{"baseColorFactor":[0.08,0.22,0.31,0.94],"metallicFactor":0.1,"roughnessFactor":0.22},"alphaMode":"BLEND","doubleSided":true},{"name":"glassSilver","pbrMetallicRoughness":{"baseColorFactor":[0.66,0.78,0.82,0.86],"metallicFactor":0.1,"roughnessFactor":0.22},"alphaMode":"BLEND","doubleSided":true},{"name":"steel","pbrMetallicRoughness":{"baseColorFactor":[0.66,0.69,0.68,1],"metallicFactor":0.1,"roughnessFactor":0.82}},{"name":"steelDark","pbrMetallicRoughness":{"baseColorFactor":[0.32,0.36,0.38,1],"metallicFactor":0.1,"roughnessFactor":0.82}},{"name":"pearlRed","pbrMetallicRoughness":{"baseColorFactor":[0.8,0.1,0.16,1],"metallicFactor":0,"roughnessFactor":0.82}},{"name":"pearlPink","pbrMetallicRoughness":{"baseColorFactor":[0.95,0.36,0.46,1],"metallicFactor":0,"roughnessFactor":0.82}},{"name":"pearlWhite","pbrMetallicRoughness":{"baseColorFactor":[0.94,0.88,0.76,1],"metallicFactor":0,"roughnessFactor":0.82}},{"name":"gold","pbrMetallicRoughness":{"baseColorFactor":[0.96,0.7,0.18,1],"metallicFactor":0,"roughnessFactor":0.82}},{"name":"bundStone","pbrMetallicRoughness":{"baseColorFactor":[0.78,0.66,0.48,1],"metallicFactor":0,"roughnessFactor":0.82}},{"name":"bundDark","pbrMetallicRoughness":{"baseColorFactor":[0.46,0.35,0.23,1],"metallicFactor":0,"roughnessFactor":0.82}},{"name":"roofGreen","pbrMetallicRoughness":{"baseColorFactor":[0.08,0.38,0.36,1],"metallicFactor":0,"roughnessFactor":0.82}},{"name":"neon","pbrMetallicRoughness":{"baseColorFactor":[0.18,0.95,0.9,1],"metallicFactor":0,"roughnessFactor":0.82}},{"name":"warning","pbrMetallicRoughness":{"baseColorFactor":[1,0.45,0.04,1],"metallicFactor":0,"roughnessFactor":0.82}},{"name":"red","pbrMetallicRoughness":{"baseColorFactor":[0.82,0.05,0.04,1],"metallicFactor":0,"roughnessFactor":0.82}},{"name":"white","pbrMetallicRoughness":{"baseColorFactor":[0.96,0.96,0.9,1],"metallicFactor":0,"roughnessFactor":0.82}},{"name":"black","pbrMetallicRoughness":{"baseColorFactor":[0.04,0.04,0.04,1],"metallicFactor":0,"roughnessFactor":0.82}},{"name":"treeTrunk","pbrMetallicRoughness":{"baseColorFactor":[0.35,0.2,0.1,1],"metallicFactor":0,"roughnessFactor":0.82}},{"name":"tree","pbrMetallicRoughness":{"baseColorFactor":[0.1,0.42,0.16,1],"metallicFactor":0,"roughnessFactor":0.82}},{"name":"rust","pbrMetallicRoughness":{"baseColorFactor":[0.55,0.22,0.1,1],"metallicFactor":0,"roughnessFactor":0.82}},{"name":"crate","pbrMetallicRoughness":{"baseColorFactor":[0.58,0.34,0.14,1],"metallicFactor":0,"roughnessFactor":0.82}},{"name":"tan","pbrMetallicRoughness":{"baseColorFactor":[0.75,0.62,0.44,1],"metallicFactor":0,"roughnessFactor":0.82}}],"buffers":[{"uri":"data:application/octet-stream;base64,","byteLength":95904}],"bufferViews":[{"buffer":0,"byteOffset":0,"byteLength":288,"target":34962},{"buffer":0,"byteOffset":288,"byteLength":288,"target":34962},{"buffer":0,"byteOffset":576,"byteLength":72,"target":34963},{"buffer":0,"byteOffset":648,"byteLength":4608,"target":34962},{"buffer":0,"byteOffset":5256,"byteLength":4608,"target":34962},{"buffer":0,"byteOffset":9864,"byteLength":1152,"target":34963},{"buffer":0,"byteOffset":11016,"byteLength":10944,"target":34962},{"buffer":0,"byteOffset":21960,"byteLength":10944,"target":34962},{"buffer":0,"byteOffset":32904,"byteLength":2736,"target":34963},{"buffer":0,"byteOffset":35640,"byteLength":5184,"target":34962},{"buffer":0,"byteOffset":40824,"byteLength":5184,"target":34962},{"buffer":0,"byteOffset":46008,"byteLength":1296,"target":34963},{"buffer":0,"byteOffset":47304,"byteLength":9504,"target":34962},{"buffer":0,"byteOffset":56808,"byteLength":9504,"target":34962},{"buffer":0,"byteOffset":66312,"byteLength":2376,"target":34963},{"buffer":0,"byteOffset":68688,"byteLength":7200,"target":34962},{"buffer":0,"byteOffset":75888,"byteLength":7200,"target":34962},{"buffer":0,"byteOffset":83088,"byteLength":1800,"target":34963},{"buffer":0,"byteOffset":84888,"byteLength":3168,"target":34962},{"buffer":0,"byteOffset":88056,"byteLength":3168,"target":34962},{"buffer":0,"byteOffset":91224,"byteLength":792,"target":34963},{"buffer":0,"byteOffset":92016,"byteLength":864,"target":34962},{"buffer":0,"byteOffset":92880,"byteLength":864,"target":34962},{"buffer":0,"byteOffset":93744,"byteLength":216,"target":34963},{"buffer":0,"byteOffset":93960,"byteLength":864,"target":34962},{"buffer":0,"byteOffset":94824,"byteLength":864,"target":34962},{"buffer":0,"byteOffset":95688,"byteLength":216,"target":34963}],"accessors":[{"bufferView":0,"componentType":5126,"count":24,"type":"VEC3","min":[-3.1,0,-3.1],"max":[3.1,0.12,3.1]},{"bufferView":1,"componentType":5126,"count":24,"type":"VEC3"},{"bufferView":2,"componentType":5123,"count":36,"type":"SCALAR","min":[0],"max":[23]},{"bufferView":3,"componentType":5126,"count":384,"type":"VEC3","min":[-2.52,0.1,-2.52],"max":[2.52,0.18000000000000002,2.52]},{"bufferView":4,"componentType":5126,"count":384,"type":"VEC3"},{"bufferView":5,"componentType":5123,"count":576,"type":"SCALAR","min":[0],"max":[383]},{"bufferView":6,"componentType":5126,"count":912,"type":"VEC3","min":[-1.82,0.24,-1.22],"max":[1.82,4.32,1.9200000000000002]},{"bufferView":7,"componentType":5126,"count":912,"type":"VEC3"},{"bufferView":8,"componentType":5123,"count":1368,"type":"SCALAR","min":[0],"max":[911]},{"bufferView":9,"componentType":5126,"count":432,"type":"VEC3","min":[-1.8,0.33,-1.2],"max":[1.8,2.13,1.9000000000000001]},{"bufferView":10,"componentType":5126,"count":432,"type":"VEC3"},{"bufferView":11,"componentType":5123,"count":648,"type":"SCALAR","min":[0],"max":[431]},{"bufferView":12,"componentType":5126,"count":792,"type":"VEC3","min":[-1.1475,0.30000000000000027,-1.1475],"max":[1.1475,6.02,1.1475]},{"bufferView":13,"componentType":5126,"count":792,"type":"VEC3"},{"bufferView":14,"componentType":5123,"count":1188,"type":"SCALAR","min":[0],"max":[791]},{"bufferView":15,"componentType":5126,"count":600,"type":"VEC3","min":[-1.35,0.8531249999999999,-1.35],"max":[1.35,5.41,1.35]},{"bufferView":16,"componentType":5126,"count":600,"type":"VEC3"},{"bufferView":17,"componentType":5123,"count":900,"type":"SCALAR","min":[0],"max":[599]},{"bufferView":18,"componentType":5126,"count":264,"type":"VEC3","min":[-0.92,3.1587500000000004,-0.92],"max":[0.92,4.34125,0.92]},{"bufferView":19,"componentType":5126,"count":264,"type":"VEC3"},{"bufferView":20,"componentType":5123,"count":396,"type":"SCALAR","min":[0],"max":[263]},{"bufferView":21,"componentType":5126,"count":72,"type":"VEC3","min":[-0.05,6,-0.05],"max":[0.05,6.9,0.05]},{"bufferView":22,"componentType":5126,"count":72,"type":"VEC3"},{"bufferView":23,"componentType":5123,"count":108,"type":"SCALAR","min":[0],"max":[71]},{"bufferView":24,"componentType":5126,"count":72,"type":"VEC3","min":[-0.075,6.19,-0.075],"max":[0.075,7.08,0.075]},{"bufferView":25,"componentType":5126,"count":72,"type":"VEC3"},{"bufferView":26,"componentType":5123,"count":108,"type":"SCALAR","min":[0],"max":[71]}]}