{"asset":{"version":"2.0","generator":"EarthGuardian refined Beijing voxel assets"},"scene":0,"scenes":[{"nodes":[0]}],"nodes":[{"mesh":0}],"meshes":[{"primitives":[{"attributes":{"POSITION":0,"NORMAL":1},"indices":2,"material":8},{"attributes":{"POSITION":3,"NORMAL":4},"indices":5,"material":7},{"attributes":{"POSITION":6,"NORMAL":7},"indices":8,"material":0},{"attributes":{"POSITION":9,"NORMAL":10},"indices":11,"material":1},{"attributes":{"POSITION":12,"NORMAL":13},"indices":14,"material":29},{"attributes":{"POSITION":15,"NORMAL":16},"indices":17,"material":5},{"attributes":{"POSITION":18,"NORMAL":19},"indices":20,"material":3},{"attributes":{"POSITION":21,"NORMAL":22},"indices":23,"material":4},{"attributes":{"POSITION":24,"NORMAL":25},"indices":26,"material":6},{"attributes":{"POSITION":27,"NORMAL":28},"indices":29,"material":24},{"attributes":{"POSITION":30,"NORMAL":31},"indices":32,"material":25}]}],"materials":[{"name":"palaceRed","pbrMetallicRoughness":{"baseColorFactor":[0.7,0.06,0.035,1],"metallicFactor":0,"roughnessFactor":0.82}},{"name":"darkRed","pbrMetallicRoughness":{"baseColorFactor":[0.38,0.025,0.02,1],"metallicFactor":0,"roughnessFactor":0.82}},{"name":"vermilion","pbrMetallicRoughness":{"baseColorFactor":[0.88,0.08,0.035,1],"metallicFactor":0,"roughnessFactor":0.82}},{"name":"roofGold","pbrMetallicRoughness":{"baseColorFactor":[0.95,0.48,0.08,1],"metallicFactor":0,"roughnessFactor":0.82}},{"name":"roofDark","pbrMetallicRoughness":{"baseColorFactor":[0.52,0.2,0.045,1],"metallicFactor":0,"roughnessFactor":0.82}},{"name":"plaqueGold","pbrMetallicRoughness":{"baseColorFactor":[1,0.72,0.12,1],"metallicFactor":0,"roughnessFactor":0.82}},{"name":"plaqueBlue","pbrMetallicRoughness":{"baseColorFactor":[0.08,0.2,0.42,1],"metallicFactor":0,"roughnessFactor":0.82}},{"name":"marble","pbrMetallicRoughness":{"baseColorFactor":[0.88,0.84,0.72,1],"metallicFactor":0,"roughnessFactor":0.82}},{"name":"stone","pbrMetallicRoughness":{"baseColorFactor":[0.62,0.6,0.54,1],"metallicFactor":0,"roughnessFactor":0.82}},{"name":"darkStone","pbrMetallicRoughness":{"baseColorFactor":[0.32,0.32,0.31,1],"metallicFactor":0,"roughnessFactor":0.82}},{"name":"glassBlue","pbrMetallicRoughness":{"baseColorFactor":[0.34,0.66,0.78,0.86],"metallicFactor":0.08,"roughnessFactor":0.28},"alphaMode":"BLEND","doubleSided":true},{"name":"glassDark","pbrMetallicRoughness":{"baseColorFactor":[0.1,0.27,0.36,0.94],"metallicFactor":0.08,"roughnessFactor":0.28},"alphaMode":"BLEND","doubleSided":true},{"name":"glassLight","pbrMetallicRoughness":{"baseColorFactor":[0.6,0.86,0.92,0.78],"metallicFactor":0.08,"roughnessFactor":0.28},"alphaMode":"BLEND","doubleSided":true},{"name":"steelWhite","pbrMetallicRoughness":{"baseColorFactor":[0.88,0.9,0.88,1],"metallicFactor":0.08,"roughnessFactor":0.82}},{"name":"steelGrey","pbrMetallicRoughness":{"baseColorFactor":[0.5,0.53,0.53,1],"metallicFactor":0.08,"roughnessFactor":0.82}},{"name":"fieldGreen","pbrMetallicRoughness":{"baseColorFactor":[0.12,0.5,0.26,1],"metallicFactor":0,"roughnessFactor":0.82}},{"name":"grass","pbrMetallicRoughness":{"baseColorFactor":[0.3,0.58,0.23,1],"metallicFactor":0,"roughnessFactor":0.82}},{"name":"grassDark","pbrMetallicRoughness":{"baseColorFactor":[0.2,0.43,0.17,1],"metallicFactor":0,"roughnessFactor":0.82}},{"name":"pond","pbrMetallicRoughness":{"baseColorFactor":[0.12,0.5,0.68,0.88],"metallicFactor":0,"roughnessFactor":0.82},"alphaMode":"BLEND","doubleSided":true},{"name":"pondLight","pbrMetallicRoughness":{"baseColorFactor":[0.3,0.78,0.82,0.7],"metallicFactor":0,"roughnessFactor":0.82},"alphaMode":"BLEND","doubleSided":true},{"name":"lotusPink","pbrMetallicRoughness":{"baseColorFactor":[0.95,0.5,0.74,1],"metallicFactor":0,"roughnessFactor":0.82}},{"name":"leaf","pbrMetallicRoughness":{"baseColorFactor":[0.16,0.58,0.18,1],"metallicFactor":0,"roughnessFactor":0.82}},{"name":"bamboo","pbrMetallicRoughness":{"baseColorFactor":[0.22,0.66,0.18,1],"metallicFactor":0,"roughnessFactor":0.82}},{"name":"bambooDark","pbrMetallicRoughness":{"baseColorFactor":[0.11,0.36,0.08,1],"metallicFactor":0,"roughnessFactor":0.82}},{"name":"lanternRed","pbrMetallicRoughness":{"baseColorFactor":[0.9,0.03,0.02,1],"metallicFactor":0,"roughnessFactor":0.82}},{"name":"lanternGlow","pbrMetallicRoughness":{"baseColorFactor":[1,0.7,0.18,1],"metallicFactor":0,"roughnessFactor":0.82}},{"name":"sakuraBark","pbrMetallicRoughness":{"baseColorFactor":[0.42,0.22,0.12,1],"metallicFactor":0,"roughnessFactor":0.82}},{"name":"sakura","pbrMetallicRoughness":{"baseColorFactor":[0.98,0.58,0.78,1],"metallicFactor":0,"roughnessFactor":0.82}},{"name":"sakuraLight","pbrMetallicRoughness":{"baseColorFactor":[1,0.78,0.9,1],"metallicFactor":0,"roughnessFactor":0.82}},{"name":"black","pbrMetallicRoughness":{"baseColorFactor":[0.04,0.04,0.035,1],"metallicFactor":0,"roughnessFactor":0.82}},{"name":"white","pbrMetallicRoughness":{"baseColorFactor":[0.96,0.94,0.86,1],"metallicFactor":0,"roughnessFactor":0.82}}],"buffers":[{"uri":"data:application/octet-stream;base64,","byteLength":49248}],"bufferViews":[{"buffer":0,"byteOffset":0,"byteLength":288,"target":34962},{"buffer":0,"byteOffset":288,"byteLength":288,"target":34962},{"buffer":0,"byteOffset":576,"byteLength":72,"target":34963},{"buffer":0,"byteOffset":648,"byteLength":1728,"target":34962},{"buffer":0,"byteOffset":2376,"byteLength":1728,"target":34962},{"buffer":0,"byteOffset":4104,"byteLength":432,"target":34963},{"buffer":0,"byteOffset":4536,"byteLength":1152,"target":34962},{"buffer":0,"byteOffset":5688,"byteLength":1152,"target":34962},{"buffer":0,"byteOffset":6840,"byteLength":288,"target":34963},{"buffer":0,"byteOffset":7128,"byteLength":2880,"target":34962},{"buffer":0,"byteOffset":10008,"byteLength":2880,"target":34962},{"buffer":0,"byteOffset":12888,"byteLength":720,"target":34963},{"buffer":0,"byteOffset":13608,"byteLength":1440,"target":34962},{"buffer":0,"byteOffset":15048,"byteLength":1440,"target":34962},{"buffer":0,"byteOffset":16488,"byteLength":360,"target":34963},{"buffer":0,"byteOffset":16848,"byteLength":7488,"target":34962},{"buffer":0,"byteOffset":24336,"byteLength":7488,"target":34962},{"buffer":0,"byteOffset":31824,"byteLength":1872,"target":34963},{"buffer":0,"byteOffset":33696,"byteLength":2304,"target":34962},{"buffer":0,"byteOffset":36000,"byteLength":2304,"target":34962},{"buffer":0,"byteOffset":38304,"byteLength":576,"target":34963},{"buffer":0,"byteOffset":38880,"byteLength":1728,"target":34962},{"buffer":0,"byteOffset":40608,"byteLength":1728,"target":34962},{"buffer":0,"byteOffset":42336,"byteLength":432,"target":34963},{"buffer":0,"byteOffset":42768,"byteLength":288,"target":34962},{"buffer":0,"byteOffset":43056,"byteLength":288,"target":34962},{"buffer":0,"byteOffset":43344,"byteLength":72,"target":34963},{"buffer":0,"byteOffset":43416,"byteLength":1440,"target":34962},{"buffer":0,"byteOffset":44856,"byteLength":1440,"target":34962},{"buffer":0,"byteOffset":46296,"byteLength":360,"target":34963},{"buffer":0,"byteOffset":46656,"byteLength":1152,"target":34962},{"buffer":0,"byteOffset":47808,"byteLength":1152,"target":34962},{"buffer":0,"byteOffset":48960,"byteLength":288,"target":34963}],"accessors":[{"bufferView":0,"componentType":5126,"count":24,"type":"VEC3","min":[-5.3,0,-2.25],"max":[5.3,0.16,2.25]},{"bufferView":1,"componentType":5126,"count":24,"type":"VEC3"},{"bufferView":2,"componentType":5123,"count":36,"type":"SCALAR","min":[0],"max":[23]},{"bufferView":3,"componentType":5126,"count":144,"type":"VEC3","min":[-5.1,0.05,-3.375],"max":[5.1,1.52,1.43]},{"bufferView":4,"componentType":5126,"count":144,"type":"VEC3"},{"bufferView":5,"componentType":5123,"count":216,"type":"SCALAR","min":[0],"max":[143]},{"bufferView":6,"componentType":5126,"count":96,"type":"VEC3","min":[-5.31,0.18000000000000005,-1.275],"max":[5.31,3.1100000000000003,1.275]},{"bufferView":7,"componentType":5126,"count":96,"type":"VEC3"},{"bufferView":8,"componentType":5123,"count":144,"type":"SCALAR","min":[0],"max":[95]},{"bufferView":9,"componentType":5126,"count":240,"type":"VEC3","min":[-3.79,0.25999999999999995,-1.4400000000000002],"max":[3.79,2.58,-0.9099999999999999]},{"bufferView":10,"componentType":5126,"count":240,"type":"VEC3"},{"bufferView":11,"componentType":5123,"count":360,"type":"SCALAR","min":[0],"max":[239]},{"bufferView":12,"componentType":5126,"count":120,"type":"VEC3","min":[-3.63,0.17,-1.49],"max":[3.63,0.59,-1.41]},{"bufferView":13,"componentType":5126,"count":120,"type":"VEC3"},{"bufferView":14,"componentType":5123,"count":180,"type":"SCALAR","min":[0],"max":[119]},{"bufferView":15,"componentType":5126,"count":624,"type":"VEC3","min":[-5.358,1,-1.48],"max":[5.358,4.470000000000001,0.06]},{"bufferView":16,"componentType":5126,"count":624,"type":"VEC3"},{"bufferView":17,"componentType":5123,"count":936,"type":"SCALAR","min":[0],"max":[623]},{"bufferView":18,"componentType":5126,"count":192,"type":"VEC3","min":[-5.67,1.5899999999999999,-1.625],"max":[5.67,3.55,1.625]},{"bufferView":19,"componentType":5126,"count":192,"type":"VEC3"},{"bufferView":20,"componentType":5123,"count":288,"type":"SCALAR","min":[0],"max":[191]},{"bufferView":21,"componentType":5126,"count":144,"type":"VEC3","min":[-5.38,1.7499999999999998,-1.445],"max":[5.38,3.71,1.445]},{"bufferView":22,"componentType":5126,"count":144,"type":"VEC3"},{"bufferView":23,"componentType":5123,"count":216,"type":"SCALAR","min":[0],"max":[143]},{"bufferView":24,"componentType":5126,"count":24,"type":"VEC3","min":[-0.775,2.41,-0.99],"max":[0.775,2.75,-0.8899999999999999]},{"bufferView":25,"componentType":5126,"count":24,"type":"VEC3"},{"bufferView":26,"componentType":5123,"count":36,"type":"SCALAR","min":[0],"max":[23]},{"bufferView":27,"componentType":5126,"count":120,"type":"VEC3","min":[-4.025,1.11,-1.6700000000000002],"max":[4.025,4.08,-0.76]},{"bufferView":28,"componentType":5126,"count":120,"type":"VEC3"},{"bufferView":29,"componentType":5123,"count":180,"type":"SCALAR","min":[0],"max":[119]},{"bufferView":30,"componentType":5126,"count":96,"type":"VEC3","min":[-3.98,0.99,-1.6400000000000001],"max":[3.98,1.09,-1.52]},{"bufferView":31,"componentType":5126,"count":96,"type":"VEC3"},{"bufferView":32,"componentType":5123,"count":144,"type":"SCALAR","min":[0],"max":[95]}]}